<svg xmlns="http://www.w3.org/2000/svg" xmlns:xlink="http://www.w3.org/1999/xlink" width="2000" zoomAndPan="magnify" viewBox="0 0 1500 1499.999933" height="2000" preserveAspectRatio="xMidYMid meet" version="1.0"><defs><clipPath id="586a707977"><path d="M 750 0 C 335.785156 0 0 335.785156 0 750 C 0 1164.214844 335.785156 1500 750 1500 C 1164.214844 1500 1500 1164.214844 1500 750 C 1500 335.785156 1164.214844 0 750 0 Z M 750 0 " clip-rule="nonzero"/></clipPath><clipPath id="299babcaa6"><path d="M 0 0 L 1500 0 L 1500 1500 L 0 1500 Z M 0 0 " clip-rule="nonzero"/></clipPath><clipPath id="7887ddc8a5"><path d="M 750 0 C 335.785156 0 0 335.785156 0 750 C 0 1164.214844 335.785156 1500 750 1500 C 1164.214844 1500 1500 1164.214844 1500 750 C 1500 335.785156 1164.214844 0 750 0 Z M 750 0 " clip-rule="nonzero"/></clipPath><clipPath id="91a91058dc"><rect x="0" width="1500" y="0" height="1500"/></clipPath><clipPath id="b24e9cec2e"><path d="M 137.976562 133 L 1265 133 L 1265 1427.210938 L 137.976562 1427.210938 Z M 137.976562 133 " clip-rule="nonzero"/></clipPath><clipPath id="914647bcbd"><path d="M 788 72.710938 L 858 72.710938 L 858 142 L 788 142 Z M 788 72.710938 " clip-rule="nonzero"/></clipPath><clipPath id="8ff2583530"><path d="M 1266 317 L 1361.964844 317 L 1361.964844 360 L 1266 360 Z M 1266 317 " clip-rule="nonzero"/></clipPath></defs><g clip-path="url(#586a707977)"><g transform="matrix(1, 0, 0, 1, 0, 0.000000000000112861)"><g clip-path="url(#91a91058dc)"><g clip-path="url(#299babcaa6)"><g clip-path="url(#7887ddc8a5)"><rect x="-330" width="2160" fill="#ffffff" height="2159.999904" y="-329.999985" fill-opacity="1"/></g></g></g></g></g><g clip-path="url(#b24e9cec2e)"><path fill="#571c1c" d="M 1072.132812 582.613281 C 1047.734375 586.183594 1022.800781 584.285156 998.316406 586.148438 C 962.367188 589.613281 932.449219 595.667969 897.949219 606.269531 C 876.808594 612.355469 853.71875 617.683594 830.234375 620.925781 C 864.253906 626.789062 900.066406 633.753906 943.675781 657.050781 C 861.925781 621.632812 812.855469 638.875 746.195312 621.269531 C 742.660156 620.703125 739.160156 620.03125 735.695312 619.238281 C 700.414062 609.132812 664.242188 599.027344 627.839844 593.890625 C 610.410156 591.457031 594.304688 589.839844 577.164062 594.769531 C 564.40625 599.320312 544.058594 613.253906 524.300781 626.789062 C 533.523438 628.324219 542.164062 631.308594 551.09375 636.652344 C 572.921875 650.53125 617.546875 666.722656 643.1875 670.585938 C 616.253906 671.328125 570.234375 658.136719 545.078125 647.636719 C 532.421875 642.253906 520.765625 641.722656 507.246094 643.324219 C 503.402344 643.929688 499.710938 644.667969 496.160156 645.601562 C 493.089844 647.515625 490.175781 649.257812 487.46875 650.789062 C 478.382812 656.085938 472.589844 661.394531 466.328125 669.828125 C 459.878906 679.070312 456.277344 687.292969 452.949219 698.019531 C 449.464844 710.710938 447.636719 722.691406 446.914062 734.726562 C 448.792969 732.847656 450.84375 730.96875 453.171875 729.054688 C 472.363281 715.175781 496.28125 708.121094 518.367188 700.105469 C 498.78125 710.484375 476.519531 721.105469 461.570312 737.832031 C 455.535156 744.9375 452.570312 750.746094 450.070312 759.710938 C 448.914062 764.972656 448.3125 769.972656 448.050781 774.972656 L 448.085938 775.214844 C 451.449219 802.441406 439.808594 837.960938 449.757812 864.910156 C 464.191406 889.410156 459.328125 914.636719 469.710938 933.191406 C 471.328125 936.085938 480.691406 951.519531 482.210938 954.398438 C 469.15625 950.125 459.347656 939.105469 449.605469 929.121094 C 435.464844 914.636719 422.6875 912.5 411.394531 900.273438 C 405.324219 893.394531 400.910156 886.324219 396.273438 878.460938 C 384.132812 858.132812 376.167969 843.097656 358.527344 826.441406 C 373.425781 845.183594 378.960938 861.082031 387.480469 882.859375 C 391.253906 892.136719 394.789062 900.34375 400.117188 908.878906 C 406.117188 917.878906 411.601562 923.621094 420.980469 929.15625 C 443.671875 944.484375 455.691406 960.746094 470.691406 977.417969 C 492.347656 1001.507812 528.972656 1020.921875 543.9375 1043.164062 C 554.527344 1058.925781 570.941406 1063.667969 584.046875 1077.0625 C 590.890625 1084.0625 597.582031 1092.511719 605.148438 1101.824219 C 607.941406 1105.238281 610.839844 1108.773438 613.925781 1112.394531 C 612.339844 1112.050781 610.738281 1111.722656 609.132812 1111.429688 C 596.582031 1108.394531 588.0625 1103.132812 576.304688 1098.546875 C 566.371094 1094.667969 555.507812 1094.597656 545.078125 1090.132812 C 533.28125 1084.996094 522.195312 1076.441406 509.46875 1070.496094 C 493.640625 1064.460938 485.296875 1059.183594 475.140625 1044.941406 C 467.296875 1034.007812 453.828125 1029.058594 444.378906 1017.679688 C 443.929688 1017.144531 443.484375 1016.59375 443.070312 1016.023438 C 443.429688 1016.558594 443.808594 1017.078125 444.191406 1017.59375 C 449.398438 1024.578125 455.347656 1029.492188 460.742188 1034.320312 C 454.726562 1029.644531 447.949219 1024.644531 442.277344 1016.578125 C 447.949219 1024.644531 454.726562 1029.644531 460.742188 1034.320312 C 465.054688 1038.199219 469.019531 1042.042969 472.019531 1046.890625 C 482.726562 1063.992188 489.8125 1067.734375 506.160156 1077.324219 C 518.832031 1084.390625 528.421875 1093.359375 540.371094 1100.152344 C 551.558594 1105.617188 560.734375 1106.808594 571.128906 1111.410156 C 583.90625 1117.671875 591.027344 1123.894531 605.5625 1128.050781 C 617.753906 1132.066406 631.03125 1145.949219 644.980469 1153.242188 C 678.136719 1170.585938 713.503906 1187.039062 735.433594 1206.746094 C 751.972656 1222.179688 761.972656 1235.265625 781.40625 1247.179688 C 770.695312 1245.957031 763.074219 1241.628906 752.539062 1242.59375 C 769.574219 1247.664062 772.164062 1258.230469 797.042969 1259.75 C 811.855469 1260.457031 827.875 1252.042969 843.582031 1249.386719 C 860.960938 1246.4375 876.875 1247.109375 899.707031 1247.886719 C 923.863281 1249.851562 954.296875 1251.558594 977.488281 1244.300781 C 954.984375 1255.199219 924.5 1255.972656 899.707031 1257.714844 C 862.046875 1259.320312 852.097656 1262.078125 837.476562 1268.734375 C 848.339844 1271.386719 859.289062 1273.285156 870.117188 1274.371094 C 898.414062 1276.199219 927.898438 1275.992188 956.261719 1275.785156 C 1148.621094 1277.957031 1057.148438 1354.203125 1243.59375 1320.546875 C 1064.132812 1362.222656 1132.171875 1294.320312 957.484375 1301.132812 C 922.898438 1303.90625 892.414062 1305.925781 857.6875 1301.492188 C 843.945312 1299.734375 827.097656 1299.148438 815.683594 1289.148438 C 821.90625 1300.699219 844.355469 1305.890625 856.582031 1308.804688 C 904.207031 1319.324219 900.949219 1333.667969 934.554688 1358.808594 C 942.984375 1364.773438 950.105469 1368.722656 960.019531 1371.828125 C 971.917969 1375.1875 980.882812 1375.292969 992.921875 1372.308594 C 980.953125 1376.777344 971.660156 1377.742188 959.054688 1375.929688 C 948.140625 1373.894531 940.121094 1370.621094 930.363281 1365.5 C 924.914062 1362.324219 920.292969 1359.136719 916.070312 1356.050781 C 920.691406 1365.121094 924.3125 1374.671875 927.863281 1385.257812 C 929.3125 1389.828125 930.761719 1393.707031 933.175781 1397.863281 C 935.449219 1401.449219 937.46875 1403.675781 940.949219 1406.121094 C 950.039062 1412.089844 960.832031 1413.070312 971.4375 1413.8125 C 960.296875 1413.949219 949.433594 1413.96875 939.175781 1409.140625 C 934.882812 1406.792969 932.261719 1404.46875 929.226562 1400.640625 C 925.949219 1396.363281 923.964844 1392.433594 921.863281 1387.5 C 913.964844 1369.34375 905.792969 1354.050781 890.722656 1340.875 C 880.945312 1332.601562 873.050781 1328.789062 860.582031 1326.167969 C 852.875 1324.667969 845.617188 1324.183594 838.132812 1323.617188 C 816.632812 1321.925781 813.769531 1310.683594 795.957031 1306.511719 C 804.957031 1310.683594 809.785156 1316.460938 816.371094 1322.582031 C 822.960938 1328.703125 827.285156 1330.238281 832.941406 1337.601562 C 841.046875 1348.1875 850.496094 1358.585938 858.101562 1369.878906 C 872.050781 1390.5 873.773438 1404.382812 873.84375 1428.140625 C 863.925781 1392.828125 845.976562 1374.585938 817.199219 1352.394531 C 799.386719 1338.652344 781.90625 1326.875 764.851562 1303.492188 C 747.175781 1279.25 739.144531 1272.714844 724.003906 1257.835938 C 697.640625 1231.953125 674.136719 1228.417969 645.480469 1208.109375 C 663.207031 1229.488281 674.898438 1230.988281 687.792969 1254.644531 C 690.707031 1259.992188 695.675781 1265.835938 699.589844 1271.941406 C 702.191406 1275.957031 704.261719 1284.683594 709.15625 1292.925781 C 715.519531 1303.648438 724.761719 1314.132812 726.796875 1318.375 C 735.417969 1335.945312 740.796875 1349.601562 741.589844 1369.445312 C 740.816406 1392.449219 733.503906 1408.347656 721.660156 1427.746094 C 729.074219 1408.226562 732.917969 1391.863281 727.660156 1371.292969 C 723.125 1355.292969 715.65625 1345.082031 705.398438 1332.324219 C 687.777344 1312.167969 670.121094 1295.820312 658.964844 1279.390625 C 661.445312 1269.199219 662.050781 1261.835938 660.085938 1252.109375 C 660.066406 1258.542969 658.34375 1266.09375 654.117188 1276.320312 C 645.515625 1297.21875 635.496094 1308.789062 630.496094 1334.1875 C 623.460938 1301.425781 628.101562 1303.390625 635.6875 1270.871094 C 637.636719 1259.992188 628.894531 1251.214844 627.703125 1240.144531 C 627.394531 1234.109375 619.859375 1233.816406 617.046875 1228.539062 C 611.375 1219.660156 605.789062 1217.675781 601.046875 1213.644531 C 595.667969 1209.074219 585.492188 1194.3125 583.285156 1211.332031 C 582.425781 1217.988281 572.578125 1219.265625 574.75 1225.296875 C 573.042969 1231.902344 575.804688 1239.523438 575.011719 1246.871094 C 573.214844 1263.078125 574.285156 1260.730469 574.871094 1266.027344 C 575.183594 1268.75 572.664062 1274.785156 575.304688 1283.871094 C 584.648438 1316.03125 590.875 1348.429688 590.632812 1387.984375 C 582.011719 1338.546875 561.90625 1300.683594 540.472656 1264.699219 C 545.644531 1254.699219 545.472656 1247.695312 542.59375 1236.539062 C 543.214844 1252.679688 537.09375 1259.4375 531.4375 1263.199219 C 520.539062 1270.40625 508.453125 1276.628906 499.453125 1284.957031 C 493.175781 1290.511719 489.105469 1295.285156 485.933594 1303.148438 C 481.691406 1313.683594 482.210938 1322.582031 484.832031 1333.480469 C 477.949219 1322.890625 474.15625 1314.269531 473.035156 1301.597656 C 472.847656 1290.113281 475.125 1281.871094 479.832031 1271.507812 C 488.003906 1255.09375 500.160156 1241.660156 507.054688 1226.765625 C 508.851562 1223.210938 510.523438 1219.902344 511.589844 1216.246094 C 519.730469 1197.433594 522.867188 1176.761719 520.230469 1160.398438 C 519.78125 1170.585938 518.625 1179.554688 513.867188 1188.710938 C 511.332031 1194.140625 511.210938 1200.246094 504.832031 1205.347656 C 501.832031 1197.175781 496.089844 1185.070312 492.367188 1175.8125 C 478.242188 1140.621094 488.933594 1113.738281 463.882812 1084.339844 C 471.363281 1103.222656 473.796875 1114.050781 473.3125 1122.085938 C 471.710938 1149.65625 477.777344 1146.757812 478.777344 1174.589844 C 478.898438 1178.398438 479.777344 1182.761719 479.949219 1188.089844 C 481.8125 1202.402344 482.003906 1213.78125 478.539062 1227.851562 C 475.933594 1238.542969 472.519531 1245.902344 466.277344 1254.921875 C 455.328125 1269.90625 442.671875 1280.597656 432 1296.285156 C 438.070312 1279.683594 448.105469 1265.351562 454.640625 1248.871094 C 457.554688 1240.59375 458.726562 1234.367188 458.777344 1225.574219 C 458.207031 1215.902344 457.792969 1213.882812 458.847656 1203.953125 C 460.828125 1188.953125 461.742188 1186.589844 460.171875 1170.65625 C 458.707031 1192.175781 448.863281 1203.554688 431.5 1215.96875 C 412.808594 1228.710938 396.566406 1236.59375 382.703125 1255.316406 C 393.203125 1233.921875 407.582031 1223.402344 423.828125 1207.039062 C 427.859375 1202.847656 431.34375 1199.019531 434.363281 1194.726562 C 445.429688 1178.984375 437.414062 1158.378906 432.414062 1141.84375 C 429.601562 1131.671875 427.808594 1123 427.101562 1112.429688 C 426.566406 1096.304688 424.6875 1087.167969 420.222656 1080.53125 C 410.964844 1066.804688 383.789062 1055.164062 405.117188 1029.492188 C 399.980469 1031.285156 396.308594 1033.285156 392.203125 1036.90625 C 388.273438 1040.785156 386.066406 1044.285156 384.152344 1049.457031 C 382.21875 1055.199219 381.804688 1059.785156 382.238281 1065.820312 C 382.390625 1067.890625 382.632812 1069.804688 382.976562 1071.648438 C 383.046875 1076.960938 385.632812 1083.496094 388.375 1089.117188 C 390.394531 1093.238281 392.375 1097.445312 394.167969 1101.808594 C 398.929688 1113.996094 401.101562 1123.324219 400.289062 1136.5 C 399.308594 1147.085938 397.132812 1154.722656 391.394531 1163.726562 C 386.496094 1171.054688 381.71875 1175.535156 374.738281 1180.761719 C 361.113281 1190.3125 348.339844 1196.296875 335.457031 1207.453125 C 344.628906 1194.105469 356.753906 1184.570312 366.496094 1172.191406 C 370.734375 1166.898438 373.546875 1162.570312 375.738281 1156.085938 C 377.617188 1149.308594 377.597656 1144.050781 376.652344 1137.121094 C 374.976562 1128.878906 371.769531 1123.515625 366.875 1116.824219 C 365.460938 1113.636719 351.734375 1099.132812 348.5625 1095.097656 C 338.855469 1083.238281 330.128906 1069.148438 329.285156 1053.890625 C 328.128906 1032.871094 334.714844 1016.957031 338.921875 995.558594 C 342.855469 975.433594 349.164062 965.898438 353.476562 948.449219 C 355.441406 938.761719 355.476562 931.605469 353.648438 921.878906 C 353.441406 928.792969 351.0625 940.449219 347.078125 946.210938 C 345.457031 949.191406 343.804688 951.847656 342.011719 954.363281 C 340.714844 926.019531 332.769531 900.414062 330.648438 870.582031 C 328.941406 846.339844 323.472656 825.683594 310.507812 801.765625 C 297.28125 781.316406 283.59375 767.367188 266.125 753.832031 C 264.554688 754.402344 263.039062 755.003906 261.589844 755.589844 C 241.003906 763.214844 229.742188 766.574219 207.328125 762.523438 C 195.535156 759.332031 189.238281 752.523438 178.378906 747.882812 C 172.429688 745.609375 168.101562 745.160156 161.808594 746.296875 C 152.460938 748.054688 145.425781 752.558594 137.976562 758.265625 C 145.082031 751.46875 151.53125 746.175781 160.789062 742.609375 C 167.875 740.417969 172.996094 740.246094 180.222656 741.816406 C 190.085938 744.503906 199.863281 750.832031 208.984375 751.832031 C 226.605469 753.023438 235.761719 749.46875 249.398438 741.730469 C 227.792969 728.175781 205.722656 717.347656 184.136719 704.242188 C 176.082031 699.726562 168.480469 695.191406 161.945312 688.585938 C 159.546875 686.222656 157.703125 684.050781 156.21875 681 C 155.117188 679.515625 154.566406 675.757812 154.6875 673.878906 C 155.375 676.308594 156.375 677.863281 158.046875 679.722656 C 158.71875 680.878906 163.53125 683.984375 164.824219 684.707031 C 170.050781 687.691406 182.757812 692.035156 188.585938 693.378906 C 211.671875 699 234.761719 704.261719 257.3125 711.710938 C 268.453125 715.382812 278.316406 722.089844 288.472656 727.917969 C 296.265625 733.640625 303.214844 740.074219 310.902344 745.609375 C 331.855469 760.644531 367.097656 799.613281 382.046875 822.441406 C 390.480469 834.632812 403.324219 854.375 416.292969 866.894531 C 425.585938 875.875 431.585938 880.738281 440.671875 891.1875 C 434.015625 879.550781 426.964844 869.703125 420.238281 858.566406 C 411.550781 844.203125 402.496094 824.976562 397.324219 813.441406 C 394.738281 807.714844 388.445312 802.0625 385.359375 796.992188 C 380.011719 787.335938 371.148438 781.785156 365.40625 772.9375 C 351.734375 751.265625 340.40625 739.347656 328.09375 716.742188 C 320.199219 702.226562 319.921875 677.671875 313.265625 669.136719 C 306.988281 661.050781 298.972656 654.757812 289.800781 648.082031 C 272.089844 635.839844 254.640625 626.324219 238.65625 611.5625 C 228.675781 602.0625 223 593.976562 218.121094 581.078125 C 215.933594 577.800781 211.964844 557.457031 210.914062 552.335938 C 206.757812 532.125 202.550781 517.917969 191.1875 505.019531 C 205.984375 516.589844 215.621094 526.800781 225.519531 547.457031 C 229.191406 555.886719 232.347656 563.75 237.261719 571.59375 C 242.742188 579.628906 247.691406 584.128906 255.847656 589.40625 C 269.246094 596.941406 284.902344 602.511719 299.714844 608.390625 C 303.851562 613.910156 309.421875 620.683594 317.40625 629.894531 C 332.113281 647.394531 333.269531 665.238281 345.078125 682.121094 C 336.09375 661.101562 337.90625 644.460938 324.886719 623.789062 C 300.574219 590.0625 305.195312 587.804688 300.78125 567.40625 C 300.59375 563.421875 300.488281 559.386719 300.402344 555.285156 C 301.023438 519.4375 305.695312 492.332031 318.957031 458.878906 C 332.769531 427.292969 348.042969 405.496094 371.683594 382.71875 C 370.703125 380.546875 369.339844 378.71875 367.355469 376.617188 C 366.0625 374.148438 356.167969 368.253906 353.683594 366.199219 C 347.890625 362.285156 343.011719 358.941406 337.992188 353.976562 C 333.542969 350.21875 329.25 341.683594 327.714844 336.113281 C 331.613281 342.183594 335.40625 345.542969 341.734375 348.921875 C 347.425781 351.804688 352.648438 353.335938 358.71875 355.113281 C 365.355469 357.0625 371.082031 358.753906 377.355469 361.820312 C 380.789062 363.199219 384.425781 365.941406 387.582031 369.097656 C 424.636719 341.734375 461.847656 333.265625 508.160156 326.785156 L 509.246094 326.664062 C 556.144531 252.433594 548.4375 266.640625 622.773438 220.535156 C 556.214844 268.660156 567.476562 264.988281 536.902344 324.128906 C 581.769531 320.664062 626.773438 320.128906 671.792969 318.492188 C 679.757812 318.199219 687.585938 317.886719 695.3125 317.542969 C 715.8125 275.9375 741.953125 207.707031 763.09375 177.703125 C 775.9375 160.804688 787.679688 153.617188 807.613281 146.71875 C 836.21875 138.597656 866.652344 136.597656 896.207031 134.699219 C 896.257812 134.683594 896.828125 134.613281 896.84375 134.613281 C 897.5 134.582031 900.429688 133.804688 901.308594 133.613281 C 899.863281 134.046875 898.394531 134.511719 896.949219 134.941406 C 896.859375 134.960938 896.242188 135.0625 896.242188 135.082031 C 867.152344 138.632812 837.425781 142.460938 810.042969 153.390625 C 792.492188 160.753906 782.628906 167.789062 772.28125 183.878906 C 764.109375 199.015625 756.125 219.519531 748.074219 241.640625 C 763.4375 233.347656 778.972656 227.171875 797.820312 223.292969 C 817.597656 219.464844 831.234375 219.691406 850.960938 222.757812 C 865.652344 225.121094 879.34375 228.398438 894.292969 229.347656 C 910.050781 230.984375 928.242188 225.964844 942.175781 218.878906 C 925.742188 228.726562 913.414062 233.070312 894.34375 234.585938 C 879.066406 235.226562 865.117188 233.449219 849.996094 232.570312 C 831.769531 231.878906 819.320312 232.914062 801.664062 238.054688 C 776.800781 246.761719 756.210938 260.625 735.503906 276.710938 C 730.640625 290.28125 725.710938 303.730469 720.660156 316.265625 C 841.71875 309.386719 934.675781 291.332031 1047.613281 222.328125 C 1051.390625 219.929688 1052.578125 220.707031 1057.027344 217.378906 C 1053.285156 220.449219 1051.492188 220.550781 1048.097656 223.019531 C 971.589844 277.453125 903.257812 306.230469 827.460938 324.527344 C 838.390625 325.644531 849.511719 327.25 860.910156 329.472656 C 902.621094 339.09375 943.761719 349.527344 986.160156 355.71875 C 1082.21875 366.21875 1161.949219 332.765625 1264.285156 321.992188 C 1160.019531 335.421875 1081.183594 373.789062 984.902344 366.789062 C 941.675781 362.390625 900.136719 353.632812 857.582031 345.285156 C 800.5625 337.335938 750.972656 342.699219 696.085938 347.355469 C 688.914062 348.285156 681.636719 349.199219 674.242188 350.097656 C 621.203125 355.871094 567.835938 360.148438 515.4375 370.582031 C 478.417969 378.410156 444.65625 387.617188 416.878906 414.652344 C 413.773438 417.910156 410.878906 421.085938 408.171875 424.257812 C 446 417.117188 456.5 427.738281 504.539062 429.015625 C 556.058594 427.359375 585.132812 410.910156 653.480469 411.429688 C 576.113281 414.894531 562.734375 434.085938 505.230469 441.671875 C 450.5 445.070312 444.105469 432.550781 388.167969 452.949219 C 383.71875 461.191406 379.925781 470.105469 376.445312 480.347656 C 368.546875 505.96875 366.875 526.4375 368.496094 553.109375 C 373.582031 605.082031 388.925781 646.53125 412.617188 690.777344 C 413.1875 688.964844 413.773438 687.136719 414.394531 685.292969 C 419.945312 670.207031 425.773438 659 435.757812 646.308594 C 446.257812 633.6875 455.914062 625.839844 470.535156 618.339844 C 496.695312 604.890625 525.386719 583.390625 552.300781 571.320312 C 571.492188 555.386719 574.40625 541.144531 586.097656 520.179688 C 593.597656 507.796875 600.203125 500.28125 611.769531 491.46875 C 628.652344 480.328125 644.808594 474.554688 664.15625 468.984375 C 646.222656 476.484375 631.117188 484.125 617.097656 497.8125 C 607.875 506.882812 603.167969 514.175781 598.375 526.109375 C 592.71875 541.230469 590.40625 552.058594 585.683594 562.679688 C 601.269531 561.542969 615.789062 563.558594 632.445312 566.578125 C 651.773438 570.785156 671.015625 576.0625 690.085938 581.835938 C 713.191406 579.476562 726.261719 576.214844 746.003906 563.699219 C 767.109375 549.902344 782.042969 538.074219 805.128906 525.625 C 782.351562 542.144531 772.628906 553.886719 753.765625 573.113281 C 744.988281 581.578125 737.230469 587.597656 728.953125 592.234375 C 733.675781 594.632812 738.347656 596.804688 742.96875 598.785156 C 787.800781 612.910156 849.773438 604.339844 894.257812 593.527344 C 930.019531 584.597656 961.003906 579.992188 997.851562 578.441406 C 1025.300781 577.664062 1047.21875 582.527344 1072.132812 582.613281 " fill-opacity="1" fill-rule="nonzero"/></g><path fill="#ff84f6" d="M 964.019531 135.046875 C 963.503906 152.703125 956.503906 170.203125 943.035156 183.671875 C 929.554688 197.152344 912.070312 204.136719 894.414062 204.65625 C 894.929688 187.015625 901.929688 169.515625 915.398438 156.03125 C 928.878906 142.5625 946.363281 135.5625 964.019531 135.046875 " fill-opacity="1" fill-rule="evenodd"/><path fill="#ff84f6" d="M 1039.0625 252.691406 C 1051.785156 264.933594 1069.027344 272.539062 1088.082031 272.726562 C 1107.136719 272.917969 1124.515625 265.660156 1137.5 253.675781 C 1124.757812 241.433594 1107.515625 233.828125 1088.480469 233.640625 C 1069.425781 233.449219 1052.027344 240.707031 1039.0625 252.691406 " fill-opacity="1" fill-rule="evenodd"/><path fill="#ff84f6" d="M 1033.578125 111.476562 C 1045.835938 124.21875 1053.425781 141.460938 1053.613281 160.511719 C 1053.804688 179.550781 1046.5625 196.945312 1034.5625 209.914062 C 1022.320312 197.1875 1014.714844 179.945312 1014.523438 160.894531 C 1014.335938 141.839844 1021.59375 124.457031 1033.578125 111.476562 " fill-opacity="1" fill-rule="evenodd"/><path fill="#ff84f6" d="M 1148.691406 150.910156 C 1131.1875 148.5625 1112.789062 152.632812 1097.324219 163.753906 C 1081.839844 174.875 1072.117188 191.015625 1068.753906 208.34375 C 1086.253906 210.6875 1104.652344 206.621094 1120.136719 195.515625 C 1135.601562 184.394531 1145.328125 168.253906 1148.691406 150.910156 " fill-opacity="1" fill-rule="evenodd"/><path fill="#ff84f6" d="M 696.46875 86.558594 C 697 104.214844 703.984375 121.71875 717.46875 135.183594 C 730.933594 148.648438 748.4375 155.652344 766.074219 156.167969 C 765.574219 138.511719 758.574219 121.011719 745.089844 107.542969 C 731.625 94.078125 714.125 87.078125 696.46875 86.558594 " fill-opacity="1" fill-rule="evenodd"/><g clip-path="url(#914647bcbd)"><path fill="#ff84f6" d="M 857.6875 72.007812 C 857.1875 89.644531 850.183594 107.148438 836.71875 120.613281 C 823.234375 134.097656 805.734375 141.082031 788.09375 141.617188 C 788.613281 123.957031 795.59375 106.457031 809.078125 92.992188 C 822.546875 79.507812 840.046875 72.523438 857.6875 72.007812 " fill-opacity="1" fill-rule="evenodd"/></g><path fill="#ff84f6" d="M 967.195312 91.59375 C 961.367188 108.269531 949.417969 122.839844 932.484375 131.597656 C 915.585938 140.375 896.792969 141.753906 879.808594 136.90625 C 885.636719 120.25 897.585938 105.664062 914.5 96.90625 C 931.414062 88.128906 950.210938 86.75 967.195312 91.59375 " fill-opacity="1" fill-rule="evenodd"/><path fill="#ff84f6" d="M 876.582031 147.289062 C 876.066406 164.945312 869.066406 182.445312 855.597656 195.914062 C 842.132812 209.394531 824.632812 216.378906 806.976562 216.898438 C 807.492188 199.242188 814.476562 181.738281 827.960938 168.273438 C 841.425781 154.804688 858.925781 147.824219 876.582031 147.289062 " fill-opacity="1" fill-rule="evenodd"/><path fill="#ff84f6" d="M 1049.320312 598.648438 C 1054.734375 615.460938 1066.304688 630.324219 1082.996094 639.53125 C 1099.667969 648.722656 1118.429688 650.582031 1135.535156 646.167969 C 1130.121094 629.359375 1118.550781 614.496094 1101.859375 605.289062 C 1085.183594 596.097656 1066.425781 594.253906 1049.320312 598.648438 " fill-opacity="1" fill-rule="evenodd"/><path fill="#ff84f6" d="M 1043.164062 567.214844 C 1037.941406 550.335938 1038.890625 531.523438 1047.269531 514.417969 C 1055.648438 497.3125 1069.941406 485.019531 1086.480469 478.8125 C 1091.703125 495.675781 1090.753906 514.503906 1082.375 531.609375 C 1073.996094 548.714844 1059.699219 561.007812 1043.164062 567.214844 " fill-opacity="1" fill-rule="evenodd"/><path fill="#ff84f6" d="M 1077.097656 576.800781 C 1088.011719 562.921875 1104.03125 553.007812 1122.878906 550.179688 C 1141.707031 547.351562 1159.933594 552.128906 1174.449219 562.199219 C 1163.554688 576.078125 1147.515625 586.011719 1128.671875 588.839844 C 1109.84375 591.664062 1091.601562 586.890625 1077.097656 576.800781 " fill-opacity="1" fill-rule="evenodd"/><g clip-path="url(#8ff2583530)"><path fill="#ff84f6" d="M 1266.113281 327.144531 C 1275.855469 341.855469 1291.011719 353.042969 1309.5625 357.40625 C 1328.117188 361.753906 1346.671875 358.457031 1361.945312 349.597656 C 1352.207031 334.871094 1337.03125 323.679688 1318.496094 319.335938 C 1299.941406 314.988281 1281.390625 318.265625 1266.113281 327.144531 " fill-opacity="1" fill-rule="evenodd"/></g><path fill="#ff84f6" d="M 1289.683594 401.339844 C 1286.785156 383.925781 1277.476562 367.527344 1262.300781 356.027344 C 1247.128906 344.492188 1228.832031 339.941406 1211.28125 341.835938 C 1214.195312 359.253906 1223.488281 375.632812 1238.679688 387.167969 C 1253.851562 398.667969 1272.128906 403.222656 1289.683594 401.339844 " fill-opacity="1" fill-rule="evenodd"/><path fill="#ff84f6" d="M 1209.28125 317.699219 C 1209.539062 300.039062 1216.28125 282.4375 1229.558594 268.78125 C 1242.851562 255.125 1260.234375 247.882812 1277.890625 247.105469 C 1277.613281 264.761719 1270.871094 282.367188 1257.59375 296.023438 C 1244.316406 309.695312 1226.902344 316.921875 1209.28125 317.699219 " fill-opacity="1" fill-rule="evenodd"/><path fill="#ff84f6" d="M 770.644531 535.730469 C 757.007812 524.523438 747.453125 508.28125 745.023438 489.382812 C 742.609375 470.484375 747.78125 452.363281 758.179688 438.085938 C 771.835938 449.292969 781.40625 465.535156 783.800781 484.433594 C 786.214844 503.332031 781.042969 521.4375 770.644531 535.730469 " fill-opacity="1" fill-rule="evenodd"/><path fill="#ff84f6" d="M 795.835938 553.109375 C 808.628906 565.265625 825.925781 572.769531 844.976562 572.820312 C 864.03125 572.886719 881.378906 565.527344 894.273438 553.457031 C 881.464844 541.300781 864.167969 533.800781 845.117188 533.730469 C 826.0625 533.660156 808.714844 541.042969 795.835938 553.109375 " fill-opacity="1" fill-rule="evenodd"/><path fill="#ff84f6" d="M 812.90625 516.609375 C 815.457031 499.140625 824.40625 482.554688 839.339844 470.726562 C 854.273438 458.878906 872.445312 453.949219 890.050781 455.449219 C 887.515625 472.933594 878.550781 489.519531 863.617188 501.347656 C 848.683594 513.175781 830.511719 518.125 812.90625 516.609375 " fill-opacity="1" fill-rule="evenodd"/><path fill="#ff84f6" d="M 603.875 117.527344 C 589.871094 128.285156 579.769531 144.203125 576.734375 163.011719 C 573.714844 181.824219 578.285156 200.101562 588.199219 214.722656 C 602.21875 203.949219 612.304688 188.03125 615.339844 169.238281 C 618.359375 150.425781 613.789062 132.148438 603.875 117.527344 " fill-opacity="1" fill-rule="evenodd"/><path fill="#ff84f6" d="M 611.890625 247.105469 C 625.789062 236.191406 643.6875 230.347656 662.671875 232.070312 C 681.65625 233.777344 698.226562 242.742188 709.933594 255.96875 C 696.054688 266.867188 678.136719 272.710938 659.152344 271.003906 C 640.1875 269.28125 623.601562 260.332031 611.890625 247.105469 " fill-opacity="1" fill-rule="evenodd"/><path fill="#ff84f6" d="M 633.222656 212.394531 C 639.273438 195.808594 651.410156 181.375 668.429688 172.824219 C 685.449219 164.273438 704.261719 163.117188 721.175781 168.167969 C 715.140625 184.773438 703.019531 199.1875 685.984375 207.742188 C 668.964844 216.308594 650.152344 217.449219 633.222656 212.394531 " fill-opacity="1" fill-rule="evenodd"/><path fill="#ff84f6" d="M 881.566406 645.773438 C 880.222656 663.378906 885.359375 681.515625 897.34375 696.328125 C 909.328125 711.121094 926 719.898438 943.503906 722.277344 C 944.832031 704.675781 939.710938 686.535156 927.726562 671.722656 C 915.742188 656.910156 899.066406 648.117188 881.566406 645.773438 " fill-opacity="1" fill-rule="evenodd"/><path fill="#ff84f6" d="M 922.777344 631.132812 C 937.761719 640.480469 956.191406 644.375 974.882812 640.652344 C 993.558594 636.910156 1009.09375 626.238281 1019.320312 611.839844 C 1004.335938 602.476562 985.902344 598.582031 967.210938 602.320312 C 948.539062 606.046875 933.019531 616.71875 922.777344 631.132812 " fill-opacity="1" fill-rule="evenodd"/><path fill="#ff84f6" d="M 949.140625 660.585938 C 953.933594 677.585938 964.988281 692.84375 981.351562 702.621094 C 997.695312 712.417969 1016.371094 714.917969 1033.613281 711.121094 C 1028.800781 694.121094 1017.75 678.863281 1001.402344 669.085938 C 985.058594 659.292969 966.382812 656.792969 949.140625 660.585938 " fill-opacity="1" fill-rule="evenodd"/><path fill="#ff84f6" d="M 479.46875 453.019531 C 496.3125 447.722656 515.144531 448.621094 532.28125 456.949219 C 549.421875 465.277344 561.75 479.519531 568.007812 496.019531 C 551.164062 501.3125 532.335938 500.417969 515.195312 492.105469 C 498.054688 483.777344 485.726562 469.535156 479.46875 453.019531 " fill-opacity="1" fill-rule="evenodd"/><path fill="#ff84f6" d="M 535.367188 411.34375 C 552.214844 416.617188 571.042969 415.738281 588.164062 407.410156 C 605.304688 399.082031 617.652344 384.839844 623.910156 368.339844 C 607.0625 363.046875 588.234375 363.925781 571.097656 372.253906 C 553.957031 380.5625 541.628906 394.824219 535.367188 411.34375 " fill-opacity="1" fill-rule="evenodd"/><path fill="#ff84f6" d="M 638.34375 419.136719 C 655.207031 413.859375 674.015625 414.738281 691.15625 423.066406 C 708.296875 431.394531 720.625 445.636719 726.882812 462.15625 C 710.035156 467.433594 691.226562 466.554688 674.070312 458.226562 C 656.929688 449.898438 644.617188 435.652344 638.34375 419.136719 " fill-opacity="1" fill-rule="evenodd"/><path fill="#ff84f6" d="M 652.359375 401.859375 C 660.550781 386.203125 674.484375 373.527344 692.484375 367.304688 C 710.484375 361.0625 729.28125 362.425781 745.382812 369.667969 C 737.210938 385.324219 723.28125 398.011719 705.277344 404.238281 C 687.257812 410.480469 668.464844 409.101562 652.359375 401.859375 " fill-opacity="1" fill-rule="evenodd"/><path fill="#ff84f6" d="M 258.296875 457.070312 C 244.296875 467.8125 234.191406 483.726562 231.15625 502.539062 C 228.121094 521.351562 232.707031 539.628906 242.625 554.25 C 256.640625 543.488281 266.710938 527.574219 269.746094 508.761719 C 272.796875 489.953125 268.210938 471.675781 258.296875 457.070312 " fill-opacity="1" fill-rule="evenodd"/><path fill="#ff84f6" d="M 151.804688 617.652344 C 167.273438 609.132812 185.914062 606.269531 204.34375 611.027344 C 222.8125 615.804688 237.710938 627.324219 247.125 642.273438 C 231.640625 650.789062 213.019531 653.652344 194.585938 648.875 C 176.136719 644.117188 161.222656 632.601562 151.804688 617.652344 " fill-opacity="1" fill-rule="evenodd"/><path fill="#ff84f6" d="M 588.753906 646.859375 C 596.941406 631.21875 610.875 618.53125 628.875 612.304688 C 646.878906 606.0625 665.671875 607.425781 681.777344 614.683594 C 673.601562 630.324219 659.671875 643.015625 641.652344 649.238281 C 623.652344 655.480469 604.855469 654.117188 588.753906 646.859375 " fill-opacity="1" fill-rule="evenodd"/><path fill="#ff84f6" d="M 583.664062 669.480469 C 580.664062 686.878906 584.046875 705.433594 594.582031 721.296875 C 605.117188 737.175781 620.875 747.503906 638.082031 751.503906 C 641.066406 734.105469 637.6875 715.570312 627.152344 699.671875 C 616.632812 683.808594 600.855469 673.480469 583.664062 669.480469 " fill-opacity="1" fill-rule="evenodd"/><path fill="#ff84f6" d="M 650.015625 672.949219 C 660.207031 687.378906 675.707031 698.105469 694.378906 701.863281 C 713.054688 705.640625 731.503906 701.792969 746.503906 692.464844 C 736.316406 678.050781 720.8125 667.328125 702.140625 663.550781 C 683.464844 659.773438 665.015625 663.621094 650.015625 672.949219 " fill-opacity="1" fill-rule="evenodd"/><path fill="#ff84f6" d="M 629.617188 505.003906 C 643.34375 516.109375 661.171875 522.210938 680.191406 520.78125 C 699.175781 519.332031 715.882812 510.609375 727.78125 497.554688 C 714.054688 486.449219 696.226562 480.347656 677.222656 481.777344 C 658.222656 483.226562 641.515625 491.953125 629.617188 505.003906 " fill-opacity="1" fill-rule="evenodd"/><path fill="#ff84f6" d="M 799.355469 258.484375 C 810.113281 272.503906 826.011719 282.609375 844.824219 285.644531 C 863.632812 288.695312 881.910156 284.144531 896.535156 274.230469 C 885.792969 260.226562 869.875 250.125 851.066406 247.054688 C 832.269531 244.019531 813.976562 248.589844 799.355469 258.484375 " fill-opacity="1" fill-rule="evenodd"/><path fill="#ff84f6" d="M 141.976562 826.753906 C 146.890625 809.785156 158.03125 794.59375 174.464844 784.921875 C 190.859375 775.25 209.550781 772.851562 226.777344 776.765625 C 221.863281 793.730469 210.707031 808.921875 194.292969 818.597656 C 177.894531 828.253906 159.1875 830.648438 141.976562 826.753906 " fill-opacity="1" fill-rule="evenodd"/><path fill="#ff84f6" d="M 491.105469 728.640625 C 493.78125 746.109375 502.847656 762.609375 517.886719 774.335938 C 532.902344 786.058594 551.113281 790.871094 568.699219 789.214844 C 566.027344 771.746094 556.957031 755.246094 541.9375 743.523438 C 526.921875 731.796875 508.675781 727.003906 491.105469 728.640625 " fill-opacity="1" fill-rule="evenodd"/><path fill="#ff84f6" d="M 383.082031 250.742188 C 369.082031 261.503906 358.992188 277.417969 355.960938 296.230469 C 352.925781 315.023438 357.492188 333.320312 367.410156 347.921875 C 381.425781 337.164062 391.511719 321.25 394.546875 302.453125 C 397.582031 283.644531 392.996094 265.367188 383.082031 250.742188 " fill-opacity="1" fill-rule="evenodd"/><path fill="#ff84f6" d="M 249.3125 410.808594 C 266.816406 413.101562 285.195312 408.996094 300.644531 397.839844 C 316.09375 386.667969 325.785156 370.527344 329.09375 353.164062 C 311.59375 350.871094 293.214844 354.992188 277.765625 366.148438 C 262.3125 377.304688 252.625 393.460938 249.3125 410.808594 " fill-opacity="1" fill-rule="evenodd"/></svg>