<svg xmlns="http://www.w3.org/2000/svg" xmlns:xlink="http://www.w3.org/1999/xlink" width="2000" zoomAndPan="magnify" viewBox="0 0 1500 1499.999933" height="2000" preserveAspectRatio="xMidYMid meet" version="1.0"><defs><g/><clipPath id="26d6f9fd1e"><rect x="0" width="909" y="0" height="137"/></clipPath><clipPath id="282b3317df"><path d="M 75 67 L 1318 67 L 1318 1494 L 75 1494 Z M 75 67 " clip-rule="nonzero"/></clipPath><clipPath id="0c4a34847d"><path d="M 1319 269 L 1424.945312 269 L 1424.945312 317 L 1319 317 Z M 1319 269 " clip-rule="nonzero"/></clipPath></defs><rect x="-150" width="1800" fill="#ffffff" y="-149.999993" height="1799.99992" fill-opacity="1"/><rect x="-150" width="1800" fill="#ffffff" y="-149.999993" height="1799.99992" fill-opacity="1"/><g transform="matrix(1, 0, 0, 1, 532, 869)"><g clip-path="url(#26d6f9fd1e)"><g fill="#571c1c" fill-opacity="1"><g transform="translate(2.47983, 101.573668)"><g><path d="M 33.625 0 L 33.625 -1.859375 C 33.625 -1.859375 33.09375 -2.078125 32.03125 -2.515625 C 30.96875 -2.960938 29.90625 -3.914062 28.84375 -5.375 C 27.78125 -6.84375 27.25 -9.125 27.25 -12.21875 L 27.25 -18.875 L 32.03125 -26.71875 L 39.875 -11.5625 C 41.113281 -9.34375 41.773438 -7.59375 41.859375 -6.3125 C 41.953125 -5.03125 41.753906 -4.078125 41.265625 -3.453125 C 40.773438 -2.835938 40.265625 -2.414062 39.734375 -2.1875 C 39.203125 -1.96875 38.9375 -1.859375 38.9375 -1.859375 L 40 0 L 73.625 0 L 72.5625 -1.859375 C 72.5625 -1.859375 71.894531 -2.078125 70.5625 -2.515625 C 69.238281 -2.960938 67.625 -3.914062 65.71875 -5.375 C 63.8125 -6.84375 61.972656 -9.125 60.203125 -12.21875 L 42.53125 -43.859375 L 56.21875 -66.453125 C 57.539062 -68.753906 59.066406 -70.613281 60.796875 -72.03125 C 62.523438 -73.445312 64.140625 -74.484375 65.640625 -75.140625 C 67.148438 -75.804688 68.128906 -76.140625 68.578125 -76.140625 L 69.765625 -78 L 50.359375 -78 L 49.171875 -76.140625 C 49.171875 -76.140625 49.566406 -75.894531 50.359375 -75.40625 C 51.160156 -74.925781 51.691406 -74.019531 51.953125 -72.6875 C 52.222656 -71.363281 51.5625 -69.414062 49.96875 -66.84375 L 27.25 -29.640625 L 27.25 -65.78125 C 27.25 -68.96875 27.78125 -71.289062 28.84375 -72.75 C 29.90625 -74.21875 30.96875 -75.148438 32.03125 -75.546875 C 33.09375 -75.941406 33.625 -76.140625 33.625 -76.140625 L 33.625 -78 L 0 -78 L 0 -76.140625 C 0 -76.140625 0.53125 -75.914062 1.59375 -75.46875 C 2.65625 -75.03125 3.71875 -74.125 4.78125 -72.75 C 5.84375 -71.382812 6.375 -69.285156 6.375 -66.453125 L 6.375 -11.5625 C 6.375 -8.632812 5.84375 -6.484375 4.78125 -5.109375 C 3.71875 -3.742188 2.65625 -2.859375 1.59375 -2.453125 C 0.53125 -2.054688 0 -1.859375 0 -1.859375 L 0 0 Z M 33.625 0 "/></g></g></g><g fill="#571c1c" fill-opacity="1"><g transform="translate(105.608906, 101.573668)"><g><path d="M 44.65625 -78 L 12.09375 -11.5625 C 11.113281 -9.257812 9.828125 -7.398438 8.234375 -5.984375 C 6.640625 -4.566406 5.15625 -3.546875 3.78125 -2.921875 C 2.414062 -2.304688 1.46875 -1.953125 0.9375 -1.859375 L 0 0 L 19.265625 0 L 20.203125 -1.859375 C 20.203125 -1.859375 19.78125 -2.101562 18.9375 -2.59375 C 18.09375 -3.082031 17.492188 -3.988281 17.140625 -5.3125 C 16.785156 -6.644531 17.226562 -8.59375 18.46875 -11.15625 L 24.046875 -22.71875 L 51.03125 -22.71875 L 56.75 -11.296875 C 57.894531 -8.898438 58.332031 -7.035156 58.0625 -5.703125 C 57.800781 -4.378906 57.316406 -3.429688 56.609375 -2.859375 C 55.898438 -2.285156 55.367188 -1.953125 55.015625 -1.859375 L 55.953125 0 L 88.640625 0 L 87.703125 -1.859375 C 85.398438 -2.304688 83.40625 -3.390625 81.71875 -5.109375 C 80.039062 -6.835938 78.40625 -9.34375 76.8125 -12.625 Z M 37.609375 -50.09375 L 49.4375 -26.171875 L 25.78125 -26.171875 Z M 37.609375 -50.09375 "/></g></g></g><g fill="#571c1c" fill-opacity="1"><g transform="translate(224.68579, 101.573668)"><g><path d="M 7.703125 -78 L 7.4375 -76.140625 C 7.4375 -76.140625 7.945312 -75.914062 8.96875 -75.46875 C 9.988281 -75.03125 10.960938 -74.125 11.890625 -72.75 C 12.828125 -71.382812 13.160156 -69.285156 12.890625 -66.453125 L 7.4375 -11.5625 C 7.175781 -8.632812 6.445312 -6.484375 5.25 -5.109375 C 4.050781 -3.742188 2.898438 -2.859375 1.796875 -2.453125 C 0.691406 -2.054688 0.140625 -1.859375 0.140625 -1.859375 L 0 0 L 20.46875 0 L 20.59375 -1.859375 C 20.59375 -1.859375 20.082031 -2.035156 19.0625 -2.390625 C 18.050781 -2.742188 17.078125 -3.609375 16.140625 -4.984375 C 15.210938 -6.359375 14.882812 -8.59375 15.15625 -11.6875 L 19.671875 -56.21875 L 40.9375 0 L 53.015625 0 L 75.609375 -57.9375 L 80.40625 -12.21875 C 80.757812 -9.125 80.46875 -6.84375 79.53125 -5.375 C 78.601562 -3.914062 77.628906 -2.960938 76.609375 -2.515625 C 75.585938 -2.078125 75.078125 -1.859375 75.078125 -1.859375 L 75.34375 0 L 108.84375 0 L 108.703125 -1.859375 C 108.703125 -1.859375 108.144531 -2.054688 107.03125 -2.453125 C 105.925781 -2.859375 104.773438 -3.742188 103.578125 -5.109375 C 102.390625 -6.484375 101.617188 -8.632812 101.265625 -11.5625 L 95.546875 -66.453125 C 95.285156 -69.285156 95.617188 -71.382812 96.546875 -72.75 C 97.472656 -74.125 98.445312 -75.03125 99.46875 -75.46875 C 100.488281 -75.914062 101 -76.140625 101 -76.140625 L 100.734375 -78 L 67.109375 -78 L 67.109375 -76.28125 C 68.796875 -76.28125 70.054688 -75.367188 70.890625 -73.546875 C 71.734375 -71.734375 71.625 -69.5 70.5625 -66.84375 L 51.828125 -19 L 34.546875 -66.71875 C 33.753906 -69.101562 33.535156 -70.957031 33.890625 -72.28125 C 34.242188 -73.613281 34.835938 -74.566406 35.671875 -75.140625 C 36.515625 -75.722656 37.113281 -76.054688 37.46875 -76.140625 L 36.8125 -78 Z M 7.703125 -78 "/></g></g></g><g fill="#571c1c" fill-opacity="1"><g transform="translate(364.096129, 101.573668)"><g><path d="M 0 -78 L 0 -76.140625 C 0 -76.140625 0.53125 -75.914062 1.59375 -75.46875 C 2.65625 -75.03125 3.71875 -74.125 4.78125 -72.75 C 5.84375 -71.382812 6.375 -69.285156 6.375 -66.453125 L 6.375 -11.5625 C 6.375 -8.632812 5.84375 -6.484375 4.78125 -5.109375 C 3.71875 -3.742188 2.65625 -2.859375 1.59375 -2.453125 C 0.53125 -2.054688 0 -1.859375 0 -1.859375 L 0 0 L 33.625 0 L 33.625 -1.859375 C 33.625 -1.859375 33.09375 -2.078125 32.03125 -2.515625 C 30.96875 -2.960938 29.90625 -3.914062 28.84375 -5.375 C 27.78125 -6.84375 27.25 -9.125 27.25 -12.21875 L 27.25 -65.78125 C 27.25 -68.96875 27.78125 -71.289062 28.84375 -72.75 C 29.90625 -74.21875 30.96875 -75.148438 32.03125 -75.546875 C 33.09375 -75.941406 33.625 -76.140625 33.625 -76.140625 L 33.625 -78 Z M 0 -78 "/></g></g></g><g fill="#571c1c" fill-opacity="1"><g transform="translate(428.153065, 101.573668)"><g><path d="M 2.921875 -78 L 0 -60.328125 L 1.59375 -59.40625 C 1.59375 -59.40625 2.035156 -60.066406 2.921875 -61.390625 C 3.804688 -62.722656 5.132812 -64.296875 6.90625 -66.109375 C 8.675781 -67.929688 10.820312 -69.613281 13.34375 -71.15625 C 15.875 -72.707031 18.78125 -73.707031 22.0625 -74.15625 C 22.769531 -73.445312 23.410156 -72.472656 23.984375 -71.234375 C 24.554688 -69.992188 24.84375 -68.398438 24.84375 -66.453125 L 24.84375 -11.5625 C 24.84375 -8.632812 24.3125 -6.484375 23.25 -5.109375 C 22.1875 -3.742188 21.125 -2.859375 20.0625 -2.453125 C 19 -2.054688 18.46875 -1.859375 18.46875 -1.859375 L 18.46875 0 L 52.09375 0 L 52.09375 -1.859375 C 52.09375 -1.859375 51.5625 -2.078125 50.5 -2.515625 C 49.4375 -2.960938 48.375 -3.914062 47.3125 -5.375 C 46.25 -6.84375 45.71875 -9.125 45.71875 -12.21875 L 45.71875 -65.78125 C 45.71875 -67.90625 46.003906 -69.65625 46.578125 -71.03125 C 47.148438 -72.40625 47.789062 -73.445312 48.5 -74.15625 C 51.78125 -73.707031 54.679688 -72.707031 57.203125 -71.15625 C 59.734375 -69.613281 61.882812 -67.929688 63.65625 -66.109375 C 65.425781 -64.296875 66.753906 -62.722656 67.640625 -61.390625 C 68.523438 -60.066406 68.96875 -59.40625 68.96875 -59.40625 L 70.5625 -60.328125 L 67.640625 -78 Z M 2.921875 -78 "/></g></g></g><g fill="#571c1c" fill-opacity="1"><g transform="translate(528.22547, 101.573668)"><g><path d="M 38.671875 -78.140625 C 33.359375 -78.140625 28.351562 -77.117188 23.65625 -75.078125 C 18.957031 -73.046875 14.835938 -70.253906 11.296875 -66.703125 C 7.753906 -63.160156 4.984375 -59.019531 2.984375 -54.28125 C 0.992188 -49.539062 0 -44.46875 0 -39.0625 C 0 -33.664062 0.992188 -28.617188 2.984375 -23.921875 C 4.984375 -19.222656 7.753906 -15.078125 11.296875 -11.484375 C 14.835938 -7.898438 18.957031 -5.085938 23.65625 -3.046875 C 28.351562 -1.015625 33.359375 0 38.671875 0 C 43.984375 0 48.988281 -1.015625 53.6875 -3.046875 C 58.382812 -5.085938 62.503906 -7.898438 66.046875 -11.484375 C 69.585938 -15.078125 72.351562 -19.222656 74.34375 -23.921875 C 76.34375 -28.617188 77.34375 -33.664062 77.34375 -39.0625 C 77.34375 -44.46875 76.34375 -49.539062 74.34375 -54.28125 C 72.351562 -59.019531 69.585938 -63.160156 66.046875 -66.703125 C 62.503906 -70.253906 58.382812 -73.046875 53.6875 -75.078125 C 48.988281 -77.117188 43.984375 -78.140625 38.671875 -78.140625 Z M 38.671875 -74.421875 C 41.953125 -74.421875 44.921875 -72.847656 47.578125 -69.703125 C 50.234375 -66.554688 52.359375 -62.367188 53.953125 -57.140625 C 55.546875 -51.910156 56.34375 -46.109375 56.34375 -39.734375 C 56.34375 -33.359375 55.546875 -27.535156 53.953125 -22.265625 C 52.359375 -16.992188 50.234375 -12.785156 47.578125 -9.640625 C 44.921875 -6.492188 41.953125 -4.921875 38.671875 -4.921875 C 35.484375 -4.921875 32.535156 -6.492188 29.828125 -9.640625 C 27.128906 -12.785156 24.984375 -16.992188 23.390625 -22.265625 C 21.796875 -27.535156 21 -33.359375 21 -39.734375 C 21 -46.109375 21.796875 -51.910156 23.390625 -57.140625 C 24.984375 -62.367188 27.128906 -66.554688 29.828125 -69.703125 C 32.535156 -72.847656 35.484375 -74.421875 38.671875 -74.421875 Z M 38.671875 -74.421875 "/></g></g></g><g fill="#571c1c" fill-opacity="1"><g transform="translate(635.07568, 101.573668)"><g><path d="M 36.28125 -77.875 C 33.175781 -77.875 29.960938 -77.539062 26.640625 -76.875 C 23.316406 -76.207031 20.257812 -75.117188 17.46875 -73.609375 C 14.6875 -72.109375 12.429688 -70.070312 10.703125 -67.5 C 8.972656 -64.9375 8.109375 -61.75 8.109375 -57.9375 C 8.109375 -54.394531 9.015625 -51.425781 10.828125 -49.03125 C 12.648438 -46.644531 15.019531 -44.628906 17.9375 -42.984375 C 20.863281 -41.347656 23.921875 -39.773438 27.109375 -38.265625 L 28.96875 -37.46875 C 32.15625 -36.050781 35.1875 -34.523438 38.0625 -32.890625 C 40.945312 -31.253906 43.296875 -29.238281 45.109375 -26.84375 C 46.929688 -24.445312 47.84375 -21.476562 47.84375 -17.9375 C 47.84375 -14.75 47.085938 -12.242188 45.578125 -10.421875 C 44.078125 -8.609375 42.195312 -7.300781 39.9375 -6.5 C 37.675781 -5.707031 35.394531 -5.3125 33.09375 -5.3125 C 29.019531 -5.3125 25.828125 -6.195312 23.515625 -7.96875 C 21.210938 -9.738281 19.617188 -11.910156 18.734375 -14.484375 C 17.847656 -17.054688 17.492188 -19.625 17.671875 -22.1875 C 17.847656 -24.757812 18.378906 -26.929688 19.265625 -28.703125 C 20.148438 -30.472656 21.210938 -31.359375 22.453125 -31.359375 C 19.796875 -31.710938 17.625 -31.378906 15.9375 -30.359375 C 14.257812 -29.347656 12.820312 -27.976562 11.625 -26.25 C 10.425781 -24.519531 9.316406 -22.679688 8.296875 -20.734375 C 7.285156 -18.785156 6.132812 -16.945312 4.84375 -15.21875 C 3.5625 -13.488281 1.945312 -12.179688 0 -11.296875 C 1.769531 -8.898438 4.050781 -6.972656 6.84375 -5.515625 C 9.632812 -4.054688 12.601562 -2.90625 15.75 -2.0625 C 18.894531 -1.21875 21.925781 -0.640625 24.84375 -0.328125 C 27.769531 -0.015625 30.253906 0.140625 32.296875 0.140625 C 39.378906 0.140625 45.664062 -0.457031 51.15625 -1.65625 C 56.65625 -2.851562 61 -5.066406 64.1875 -8.296875 C 67.375 -11.535156 68.96875 -16.210938 68.96875 -22.328125 C 68.96875 -27.203125 67.859375 -31.207031 65.640625 -34.34375 C 63.429688 -37.488281 60.597656 -40.035156 57.140625 -41.984375 C 53.679688 -43.941406 50.003906 -45.601562 46.109375 -46.96875 C 42.210938 -48.34375 38.535156 -49.671875 35.078125 -50.953125 C 31.628906 -52.242188 28.796875 -53.796875 26.578125 -55.609375 C 24.359375 -57.429688 23.25 -59.757812 23.25 -62.59375 C 23.25 -66.226562 24.421875 -69.128906 26.765625 -71.296875 C 29.117188 -73.460938 32.289062 -74.546875 36.28125 -74.546875 C 39.03125 -74.546875 41.3125 -73.859375 43.125 -72.484375 C 44.9375 -71.117188 46.285156 -69.4375 47.171875 -67.4375 C 48.054688 -65.445312 48.453125 -63.539062 48.359375 -61.71875 C 48.273438 -59.90625 47.703125 -58.554688 46.640625 -57.671875 C 51.335938 -56.785156 55.101562 -57.359375 57.9375 -59.390625 C 60.769531 -61.429688 63.296875 -64.09375 65.515625 -67.375 C 62.503906 -70.5625 58.648438 -73.109375 53.953125 -75.015625 C 49.253906 -76.921875 43.363281 -77.875 36.28125 -77.875 Z M 36.28125 -77.875 "/></g></g></g><g fill="#571c1c" fill-opacity="1"><g transform="translate(733.553317, 101.573668)"><g><path d="M 33.625 0 L 33.625 -1.859375 C 33.625 -1.859375 33.09375 -2.078125 32.03125 -2.515625 C 30.96875 -2.960938 29.90625 -3.914062 28.84375 -5.375 C 27.78125 -6.84375 27.25 -9.125 27.25 -12.21875 L 27.25 -37.875 L 52.625 -37.875 L 52.625 -11.5625 C 52.625 -8.632812 52.09375 -6.484375 51.03125 -5.109375 C 49.96875 -3.742188 48.90625 -2.859375 47.84375 -2.453125 C 46.78125 -2.054688 46.25 -1.859375 46.25 -1.859375 L 46.25 0 L 79.734375 0 L 79.734375 -1.859375 C 79.734375 -1.859375 79.203125 -2.078125 78.140625 -2.515625 C 77.078125 -2.960938 76.015625 -3.914062 74.953125 -5.375 C 73.890625 -6.84375 73.359375 -9.125 73.359375 -12.21875 L 73.359375 -65.78125 C 73.359375 -68.96875 73.890625 -71.289062 74.953125 -72.75 C 76.015625 -74.21875 77.078125 -75.148438 78.140625 -75.546875 C 79.203125 -75.941406 79.734375 -76.140625 79.734375 -76.140625 L 79.734375 -78 L 46.25 -78 L 46.25 -76.140625 C 46.25 -76.140625 46.78125 -75.914062 47.84375 -75.46875 C 48.90625 -75.03125 49.96875 -74.125 51.03125 -72.75 C 52.09375 -71.382812 52.625 -69.285156 52.625 -66.453125 L 52.625 -41.328125 L 27.25 -41.328125 L 27.25 -65.78125 C 27.25 -68.96875 27.78125 -71.289062 28.84375 -72.75 C 29.90625 -74.21875 30.96875 -75.148438 32.03125 -75.546875 C 33.09375 -75.941406 33.625 -76.140625 33.625 -76.140625 L 33.625 -78 L 0 -78 L 0 -76.140625 C 0 -76.140625 0.53125 -75.914062 1.59375 -75.46875 C 2.65625 -75.03125 3.71875 -74.125 4.78125 -72.75 C 5.84375 -71.382812 6.375 -69.285156 6.375 -66.453125 L 6.375 -11.5625 C 6.375 -8.632812 5.84375 -6.484375 4.78125 -5.109375 C 3.71875 -3.742188 2.65625 -2.859375 1.59375 -2.453125 C 0.53125 -2.054688 0 -1.859375 0 -1.859375 L 0 0 Z M 33.625 0 "/></g></g></g><g fill="#571c1c" fill-opacity="1"><g transform="translate(843.725991, 101.573668)"><g><path d="M 0 -78 L 0 -76.140625 C 0 -76.140625 0.53125 -75.914062 1.59375 -75.46875 C 2.65625 -75.03125 3.71875 -74.125 4.78125 -72.75 C 5.84375 -71.382812 6.375 -69.285156 6.375 -66.453125 L 6.375 -11.5625 C 6.375 -8.632812 5.84375 -6.484375 4.78125 -5.109375 C 3.71875 -3.742188 2.65625 -2.859375 1.59375 -2.453125 C 0.53125 -2.054688 0 -1.859375 0 -1.859375 L 0 0 L 33.625 0 L 33.625 -1.859375 C 33.625 -1.859375 33.09375 -2.078125 32.03125 -2.515625 C 30.96875 -2.960938 29.90625 -3.914062 28.84375 -5.375 C 27.78125 -6.84375 27.25 -9.125 27.25 -12.21875 L 27.25 -65.78125 C 27.25 -68.96875 27.78125 -71.289062 28.84375 -72.75 C 29.90625 -74.21875 30.96875 -75.148438 32.03125 -75.546875 C 33.09375 -75.941406 33.625 -76.140625 33.625 -76.140625 L 33.625 -78 Z M 0 -78 "/></g></g></g></g></g><g clip-path="url(#282b3317df)"><path fill="#571c1c" d="M 1105.289062 562.367188 C 1078.378906 566.304688 1050.878906 564.214844 1023.875 566.265625 C 984.226562 570.089844 951.230469 576.765625 913.179688 588.460938 C 889.863281 595.171875 864.398438 601.050781 838.496094 604.625 C 876.019531 611.089844 915.515625 618.773438 963.609375 644.464844 C 873.453125 605.402344 819.328125 624.421875 745.808594 605.003906 C 741.910156 604.378906 738.050781 603.636719 734.226562 602.761719 C 695.316406 591.617188 655.421875 580.472656 615.273438 574.804688 C 596.050781 572.125 578.289062 570.335938 559.382812 575.777344 C 545.3125 580.796875 522.871094 596.160156 501.078125 611.089844 C 511.25 612.78125 520.78125 616.074219 530.628906 621.96875 C 554.707031 637.277344 603.921875 655.132812 632.199219 659.394531 C 602.496094 660.210938 551.738281 645.664062 523.992188 634.082031 C 510.035156 628.148438 497.179688 627.558594 482.269531 629.328125 C 478.027344 629.992188 473.960938 630.8125 470.042969 631.835938 C 466.65625 633.949219 463.441406 635.871094 460.457031 637.5625 C 450.433594 643.398438 444.046875 649.257812 437.140625 658.558594 C 430.03125 668.75 426.054688 677.820312 422.386719 689.648438 C 418.542969 703.644531 416.527344 716.863281 415.730469 730.136719 C 417.800781 728.0625 420.066406 725.992188 422.632812 723.878906 C 443.796875 708.570312 470.175781 700.792969 494.535156 691.949219 C 472.933594 703.398438 448.382812 715.113281 431.894531 733.558594 C 425.238281 741.394531 421.964844 747.804688 419.210938 757.691406 C 417.933594 763.492188 417.269531 769.007812 416.984375 774.523438 L 417.023438 774.789062 C 420.730469 804.816406 407.894531 843.992188 418.867188 873.714844 C 434.785156 900.738281 429.421875 928.5625 440.871094 949.023438 C 442.65625 952.21875 452.984375 969.238281 454.65625 972.414062 C 440.261719 967.699219 429.441406 955.546875 418.695312 944.535156 C 403.101562 928.5625 389.011719 926.203125 376.554688 912.71875 C 369.859375 905.132812 364.992188 897.335938 359.875 888.664062 C 346.488281 866.242188 337.703125 849.660156 318.246094 831.289062 C 334.679688 851.960938 340.78125 869.496094 350.175781 893.511719 C 354.34375 903.742188 358.242188 912.796875 364.117188 922.210938 C 370.734375 932.136719 376.78125 938.46875 387.128906 944.574219 C 412.152344 961.480469 425.410156 979.414062 441.953125 997.800781 C 465.839844 1024.371094 506.230469 1045.78125 522.738281 1070.316406 C 534.414062 1087.695312 552.519531 1092.925781 566.972656 1107.703125 C 574.523438 1115.421875 581.902344 1124.742188 590.25 1135.011719 C 593.328125 1138.777344 596.523438 1142.675781 599.929688 1146.667969 C 598.179688 1146.289062 596.410156 1145.925781 594.640625 1145.601562 C 580.796875 1142.257812 571.402344 1136.457031 558.433594 1131.398438 C 547.480469 1127.117188 535.5 1127.042969 523.992188 1122.117188 C 510.984375 1116.449219 498.757812 1107.019531 484.722656 1100.457031 C 467.265625 1093.800781 458.0625 1087.980469 446.859375 1072.273438 C 438.207031 1060.214844 423.355469 1054.757812 412.933594 1042.207031 C 412.4375 1041.617188 411.945312 1041.007812 411.488281 1040.382812 C 411.886719 1040.972656 412.304688 1041.542969 412.722656 1042.113281 C 418.46875 1049.8125 425.027344 1055.234375 430.980469 1060.558594 C 424.34375 1055.40625 416.871094 1049.890625 410.613281 1040.992188 C 416.871094 1049.890625 424.34375 1055.40625 430.980469 1060.558594 C 435.734375 1064.835938 440.109375 1069.078125 443.417969 1074.421875 C 455.226562 1093.289062 463.042969 1097.414062 481.070312 1107.988281 C 495.050781 1115.785156 505.621094 1125.671875 518.800781 1133.167969 C 531.144531 1139.195312 541.261719 1140.507812 552.726562 1145.585938 C 566.820312 1152.488281 574.675781 1159.351562 590.707031 1163.9375 C 604.148438 1168.367188 618.792969 1183.675781 634.179688 1191.71875 C 670.75 1210.851562 709.753906 1228.992188 733.941406 1250.730469 C 752.179688 1267.75 763.210938 1282.183594 784.640625 1295.324219 C 772.832031 1293.976562 764.425781 1289.203125 752.808594 1290.265625 C 771.597656 1295.855469 774.449219 1307.515625 801.890625 1309.1875 C 818.226562 1309.96875 835.890625 1300.6875 853.21875 1297.757812 C 872.386719 1294.507812 889.9375 1295.25 915.117188 1296.105469 C 941.761719 1298.273438 975.324219 1300.15625 1000.902344 1292.148438 C 976.085938 1304.167969 942.464844 1305.023438 915.117188 1306.945312 C 873.585938 1308.714844 862.613281 1311.753906 846.484375 1319.097656 C 858.464844 1322.023438 870.542969 1324.117188 882.484375 1325.316406 C 913.691406 1327.332031 946.210938 1327.101562 977.492188 1326.875 C 1189.648438 1329.269531 1088.761719 1413.363281 1294.394531 1376.242188 C 1096.464844 1422.207031 1171.507812 1347.316406 978.84375 1354.828125 C 940.695312 1357.890625 907.074219 1360.117188 868.773438 1355.230469 C 853.617188 1353.289062 835.035156 1352.640625 822.449219 1341.613281 C 829.3125 1354.355469 854.074219 1360.078125 867.554688 1363.292969 C 920.082031 1374.890625 916.488281 1390.714844 953.550781 1418.441406 C 962.851562 1425.019531 970.703125 1429.375 981.640625 1432.800781 C 994.761719 1436.507812 1004.648438 1436.621094 1017.925781 1433.332031 C 1004.726562 1438.257812 994.476562 1439.320312 980.574219 1437.324219 C 968.535156 1435.082031 959.695312 1431.46875 948.929688 1425.820312 C 942.921875 1422.320312 937.824219 1418.804688 933.164062 1415.398438 C 938.261719 1425.402344 942.253906 1435.9375 946.171875 1447.613281 C 947.769531 1452.652344 949.367188 1456.933594 952.03125 1461.515625 C 954.539062 1465.46875 956.765625 1467.925781 960.605469 1470.625 C 970.628906 1477.203125 982.535156 1478.289062 994.230469 1479.105469 C 981.945312 1479.257812 969.964844 1479.277344 958.648438 1473.953125 C 953.914062 1471.367188 951.023438 1468.796875 947.675781 1464.578125 C 944.0625 1459.859375 941.875 1455.523438 939.554688 1450.085938 C 930.84375 1430.0625 921.832031 1413.191406 905.210938 1398.664062 C 894.425781 1389.535156 885.71875 1385.332031 871.96875 1382.441406 C 863.46875 1380.789062 855.460938 1380.253906 847.207031 1379.628906 C 823.492188 1377.765625 820.335938 1365.363281 800.691406 1360.761719 C 810.617188 1365.363281 815.945312 1371.734375 823.207031 1378.488281 C 830.472656 1385.238281 835.246094 1386.929688 841.484375 1395.050781 C 850.421875 1406.726562 860.84375 1418.195312 869.230469 1430.652344 C 884.613281 1453.394531 886.515625 1468.703125 886.59375 1494.910156 C 875.65625 1455.960938 855.859375 1435.84375 824.121094 1411.367188 C 804.476562 1396.210938 785.191406 1383.222656 766.386719 1357.433594 C 746.894531 1330.695312 738.03125 1323.488281 721.332031 1307.078125 C 692.257812 1278.53125 666.335938 1274.632812 634.730469 1252.230469 C 654.28125 1275.8125 667.171875 1277.46875 681.398438 1303.558594 C 684.613281 1309.453125 690.089844 1315.902344 694.40625 1322.632812 C 697.277344 1327.0625 699.558594 1336.6875 704.960938 1345.777344 C 711.976562 1357.605469 722.171875 1369.167969 724.414062 1373.847656 C 733.921875 1393.226562 739.855469 1408.285156 740.730469 1430.175781 C 739.875 1455.542969 731.8125 1473.078125 718.746094 1494.472656 C 726.925781 1472.945312 731.164062 1454.898438 725.367188 1432.210938 C 720.363281 1414.5625 712.128906 1403.304688 700.8125 1389.230469 C 681.378906 1367 661.90625 1348.972656 649.601562 1330.847656 C 652.339844 1319.609375 653.003906 1311.488281 650.835938 1300.765625 C 650.816406 1307.855469 648.917969 1316.1875 644.257812 1327.464844 C 634.769531 1350.511719 623.71875 1363.273438 618.203125 1391.285156 C 610.445312 1355.152344 615.5625 1357.320312 623.929688 1321.453125 C 626.078125 1309.453125 616.433594 1299.773438 615.125 1287.566406 C 614.78125 1280.910156 606.46875 1280.585938 603.371094 1274.765625 C 597.113281 1264.972656 590.953125 1262.785156 585.722656 1258.335938 C 579.789062 1253.296875 568.570312 1237.019531 566.136719 1255.789062 C 565.183594 1263.128906 554.324219 1264.535156 556.722656 1271.191406 C 554.839844 1278.476562 557.882812 1286.882812 557.007812 1294.984375 C 555.027344 1312.859375 556.207031 1310.273438 556.855469 1316.109375 C 557.195312 1319.113281 554.421875 1325.769531 557.332031 1335.792969 C 567.636719 1371.261719 574.503906 1406.992188 574.238281 1450.617188 C 564.726562 1396.097656 542.554688 1354.335938 518.914062 1314.644531 C 524.621094 1303.617188 524.429688 1295.894531 521.253906 1283.589844 C 521.941406 1301.390625 515.1875 1308.847656 508.949219 1312.992188 C 496.933594 1320.941406 483.601562 1327.804688 473.675781 1336.992188 C 466.75 1343.113281 462.265625 1348.382812 458.765625 1357.054688 C 454.085938 1368.671875 454.65625 1378.488281 457.546875 1390.503906 C 449.960938 1378.828125 445.777344 1369.320312 444.539062 1355.34375 C 444.332031 1342.675781 446.839844 1333.585938 452.03125 1322.15625 C 461.046875 1304.054688 474.453125 1289.238281 482.0625 1272.808594 C 484.039062 1268.890625 485.882812 1265.238281 487.0625 1261.207031 C 496.039062 1240.460938 499.5 1217.660156 496.589844 1199.613281 C 496.09375 1210.851562 494.820312 1220.738281 489.574219 1230.839844 C 486.777344 1236.828125 486.644531 1243.558594 479.609375 1249.1875 C 476.296875 1240.175781 469.964844 1226.824219 465.859375 1216.613281 C 450.28125 1177.800781 462.074219 1148.152344 434.441406 1115.726562 C 442.695312 1136.550781 445.375 1148.492188 444.84375 1157.355469 C 443.074219 1187.765625 449.769531 1184.570312 450.871094 1215.261719 C 451.003906 1219.464844 451.976562 1224.277344 452.164062 1230.152344 C 454.21875 1245.9375 454.429688 1258.488281 450.605469 1274.007812 C 447.734375 1285.796875 443.96875 1293.917969 437.085938 1303.863281 C 425.007812 1320.390625 411.050781 1332.179688 399.28125 1349.484375 C 405.972656 1331.171875 417.042969 1315.367188 424.25 1297.1875 C 427.460938 1288.058594 428.753906 1281.195312 428.8125 1271.496094 C 428.183594 1260.828125 427.730469 1258.601562 428.890625 1247.648438 C 431.074219 1231.105469 432.082031 1228.5 430.351562 1210.925781 C 428.738281 1234.660156 417.878906 1247.210938 398.726562 1260.902344 C 378.113281 1274.957031 360.199219 1283.648438 344.910156 1304.300781 C 356.492188 1280.699219 372.351562 1269.101562 390.265625 1251.054688 C 394.714844 1246.433594 398.558594 1242.210938 401.882812 1237.476562 C 414.09375 1220.113281 405.25 1197.386719 399.734375 1179.148438 C 396.636719 1167.929688 394.65625 1158.363281 393.878906 1146.707031 C 393.289062 1128.925781 391.214844 1118.847656 386.289062 1111.523438 C 376.078125 1096.386719 346.109375 1083.550781 369.632812 1055.234375 C 363.964844 1057.210938 359.914062 1059.417969 355.386719 1063.410156 C 351.050781 1067.691406 348.617188 1071.550781 346.507812 1077.257812 C 344.378906 1083.589844 343.921875 1088.648438 344.394531 1095.304688 C 344.566406 1097.585938 344.832031 1099.695312 345.214844 1101.730469 C 345.289062 1107.589844 348.140625 1114.796875 351.167969 1120.996094 C 353.390625 1125.539062 355.578125 1130.179688 357.554688 1134.992188 C 362.804688 1148.4375 365.199219 1158.726562 364.308594 1173.253906 C 363.222656 1184.929688 360.828125 1193.355469 354.492188 1203.28125 C 349.09375 1211.363281 343.824219 1216.308594 336.125 1222.070312 C 321.101562 1232.605469 307.007812 1239.207031 292.800781 1251.507812 C 302.917969 1236.789062 316.289062 1226.273438 327.035156 1212.621094 C 331.710938 1206.78125 334.8125 1202.007812 337.226562 1194.859375 C 339.300781 1187.382812 339.28125 1181.582031 338.234375 1173.9375 C 336.390625 1164.847656 332.851562 1158.933594 327.453125 1151.554688 C 325.890625 1148.039062 310.753906 1132.042969 307.253906 1127.59375 C 296.550781 1114.511719 286.925781 1098.972656 285.996094 1082.144531 C 284.71875 1058.960938 291.984375 1041.410156 296.625 1017.808594 C 300.960938 995.617188 307.921875 985.097656 312.675781 965.855469 C 314.84375 955.167969 314.882812 947.273438 312.867188 936.546875 C 312.636719 944.175781 310.011719 957.03125 305.621094 963.382812 C 303.832031 966.671875 302.007812 969.601562 300.027344 972.375 C 298.601562 941.113281 289.835938 912.871094 287.496094 879.972656 C 285.613281 853.234375 279.585938 830.453125 265.285156 804.074219 C 250.699219 781.519531 235.597656 766.136719 216.335938 751.207031 C 214.605469 751.835938 212.929688 752.5 211.332031 753.148438 C 188.628906 761.554688 176.207031 765.261719 151.488281 760.792969 C 138.480469 757.273438 131.539062 749.761719 119.558594 744.648438 C 112.996094 742.136719 108.222656 741.640625 101.28125 742.898438 C 90.972656 744.835938 83.214844 749.800781 75 756.09375 C 82.835938 748.601562 89.949219 742.765625 100.160156 738.828125 C 107.976562 736.414062 113.625 736.222656 121.59375 737.953125 C 132.46875 740.917969 143.253906 747.898438 153.3125 749.003906 C 172.746094 750.3125 182.847656 746.398438 197.886719 737.859375 C 174.058594 722.910156 149.71875 710.96875 125.910156 696.515625 C 117.027344 691.53125 108.640625 686.53125 101.433594 679.246094 C 98.789062 676.640625 96.753906 674.246094 95.121094 670.878906 C 93.902344 669.246094 93.292969 665.097656 93.425781 663.027344 C 94.1875 665.707031 95.292969 667.417969 97.136719 669.472656 C 97.878906 670.746094 103.183594 674.167969 104.609375 674.96875 C 110.371094 678.257812 124.386719 683.050781 130.816406 684.535156 C 156.277344 690.734375 181.742188 696.535156 206.617188 704.75 C 218.902344 708.800781 229.78125 716.199219 240.980469 722.625 C 249.578125 728.9375 257.242188 736.03125 265.722656 742.136719 C 288.828125 758.71875 327.699219 801.699219 344.1875 826.878906 C 353.484375 840.320312 367.652344 862.097656 381.953125 875.902344 C 392.203125 885.8125 398.824219 891.171875 408.84375 902.699219 C 401.503906 889.863281 393.726562 879.003906 386.308594 866.71875 C 376.726562 850.875 366.742188 829.671875 361.035156 816.949219 C 358.183594 810.636719 351.242188 804.398438 347.839844 798.808594 C 341.941406 788.160156 332.167969 782.035156 325.835938 772.277344 C 310.753906 748.375 298.261719 735.234375 284.683594 710.300781 C 275.972656 694.289062 275.667969 667.210938 268.328125 657.796875 C 261.40625 648.878906 252.5625 641.9375 242.445312 634.578125 C 222.914062 621.074219 203.667969 610.578125 186.039062 594.296875 C 175.03125 583.820312 168.773438 574.902344 163.390625 560.675781 C 160.976562 557.0625 156.601562 534.621094 155.441406 528.972656 C 150.859375 506.6875 146.21875 491.015625 133.6875 476.792969 C 150.003906 489.550781 160.632812 500.808594 171.550781 523.59375 C 175.601562 532.890625 179.082031 541.5625 184.5 550.214844 C 190.546875 559.078125 196.003906 564.042969 205 569.859375 C 219.777344 578.171875 237.042969 584.3125 253.378906 590.800781 C 257.945312 596.882812 264.085938 604.359375 272.890625 614.511719 C 289.113281 633.816406 290.386719 653.5 303.414062 672.117188 C 293.507812 648.933594 295.503906 630.582031 281.144531 607.78125 C 254.332031 570.582031 259.425781 568.09375 254.558594 545.59375 C 254.351562 541.203125 254.234375 536.753906 254.140625 532.226562 C 254.824219 492.691406 259.980469 462.796875 274.601562 425.902344 C 289.835938 391.0625 306.683594 367.023438 332.757812 341.902344 C 331.671875 339.507812 330.171875 337.492188 327.984375 335.171875 C 326.558594 332.453125 315.640625 325.949219 312.902344 323.683594 C 306.515625 319.367188 301.132812 315.679688 295.597656 310.203125 C 290.691406 306.054688 285.957031 296.644531 284.265625 290.5 C 288.5625 297.195312 292.746094 300.902344 299.726562 304.628906 C 306 307.804688 311.761719 309.5 318.457031 311.457031 C 325.777344 313.605469 332.09375 315.46875 339.015625 318.855469 C 342.796875 320.375 346.8125 323.398438 350.292969 326.878906 C 391.160156 296.699219 432.199219 287.363281 483.277344 280.210938 L 484.476562 280.078125 C 536.203125 198.210938 527.703125 213.878906 609.683594 163.027344 C 536.277344 216.105469 548.695312 212.054688 514.980469 277.285156 C 564.460938 273.460938 614.097656 272.871094 663.75 271.066406 C 672.535156 270.742188 681.167969 270.398438 689.6875 270.019531 C 712.300781 224.128906 741.128906 148.878906 764.445312 115.789062 C 778.613281 97.152344 791.5625 89.222656 813.546875 81.617188 C 845.097656 72.660156 878.660156 70.453125 911.257812 68.363281 C 911.3125 68.34375 911.941406 68.265625 911.960938 68.265625 C 912.683594 68.226562 915.917969 67.371094 916.886719 67.164062 C 915.289062 67.640625 913.671875 68.152344 912.074219 68.628906 C 911.980469 68.648438 911.296875 68.761719 911.296875 68.78125 C 879.214844 72.699219 846.429688 76.917969 816.230469 88.976562 C 796.871094 97.097656 785.992188 104.855469 774.582031 122.597656 C 765.566406 139.296875 756.761719 161.90625 747.882812 186.304688 C 764.824219 177.160156 781.960938 170.351562 802.746094 166.070312 C 824.558594 161.847656 839.601562 162.097656 861.355469 165.480469 C 877.558594 168.085938 892.660156 171.699219 909.144531 172.746094 C 926.527344 174.554688 946.589844 169.019531 961.957031 161.203125 C 943.832031 172.0625 930.238281 176.855469 909.203125 178.527344 C 892.355469 179.230469 876.96875 177.273438 860.292969 176.300781 C 840.191406 175.542969 826.460938 176.683594 806.988281 182.351562 C 779.5625 191.953125 756.859375 207.242188 734.019531 224.984375 C 728.65625 239.953125 723.214844 254.785156 717.644531 268.613281 C 851.164062 261.023438 953.683594 241.113281 1078.246094 165.007812 C 1082.410156 162.363281 1083.722656 163.21875 1088.628906 159.546875 C 1084.503906 162.933594 1082.523438 163.046875 1078.777344 165.765625 C 994.398438 225.804688 919.035156 257.542969 835.4375 277.71875 C 847.492188 278.957031 859.757812 280.726562 872.328125 283.179688 C 918.332031 293.789062 963.707031 305.296875 1010.46875 312.121094 C 1116.414062 323.703125 1204.347656 286.8125 1317.214844 274.925781 C 1202.21875 289.738281 1115.273438 332.050781 1009.082031 324.332031 C 961.40625 319.480469 915.59375 309.820312 868.660156 300.617188 C 805.769531 291.851562 751.078125 297.765625 690.546875 302.898438 C 682.632812 303.925781 674.609375 304.933594 666.449219 305.921875 C 607.953125 312.292969 549.097656 317.011719 491.304688 328.515625 C 450.472656 337.148438 413.238281 347.304688 382.601562 377.121094 C 379.179688 380.71875 375.984375 384.214844 372.996094 387.714844 C 414.722656 379.84375 426.300781 391.558594 479.285156 392.964844 C 536.105469 391.136719 568.171875 372.996094 643.554688 373.566406 C 558.222656 377.390625 543.46875 398.554688 480.042969 406.921875 C 419.683594 410.667969 412.628906 396.863281 350.9375 419.359375 C 346.03125 428.449219 341.847656 438.28125 338.007812 449.578125 C 329.296875 477.835938 327.453125 500.410156 329.238281 529.832031 C 334.847656 587.148438 351.773438 632.863281 377.902344 681.664062 C 378.53125 679.664062 379.179688 677.648438 379.863281 675.613281 C 385.988281 658.976562 392.414062 646.613281 403.425781 632.617188 C 415.007812 618.695312 425.65625 610.042969 441.78125 601.773438 C 470.632812 586.9375 502.277344 563.222656 531.960938 549.914062 C 553.128906 532.339844 556.339844 516.632812 569.234375 493.507812 C 577.507812 479.851562 584.789062 471.5625 597.550781 461.84375 C 616.167969 449.558594 633.988281 443.1875 655.324219 437.046875 C 635.546875 445.316406 618.886719 453.742188 603.425781 468.84375 C 593.253906 478.84375 588.0625 486.890625 582.773438 500.050781 C 576.539062 516.726562 573.988281 528.671875 568.777344 540.382812 C 585.96875 539.128906 601.984375 541.355469 620.351562 544.683594 C 641.671875 549.324219 662.894531 555.140625 683.925781 561.511719 C 709.410156 558.90625 723.824219 555.3125 745.597656 541.507812 C 768.875 526.292969 785.34375 513.246094 810.808594 499.515625 C 785.6875 517.734375 774.960938 530.6875 754.15625 551.890625 C 744.476562 561.226562 735.917969 567.863281 726.792969 572.980469 C 732.003906 575.625 737.15625 578.019531 742.253906 580.207031 C 791.695312 595.78125 860.042969 586.328125 909.109375 574.40625 C 948.550781 564.554688 982.722656 559.476562 1023.363281 557.765625 C 1053.636719 556.910156 1077.808594 562.273438 1105.289062 562.367188 " fill-opacity="1" fill-rule="nonzero"/></g><path fill="#ff84f6" d="M 986.050781 68.742188 C 985.480469 88.214844 977.761719 107.519531 962.90625 122.371094 C 948.035156 137.242188 928.753906 144.945312 909.28125 145.515625 C 909.851562 126.058594 917.570312 106.757812 932.421875 91.886719 C 947.292969 77.035156 966.578125 69.3125 986.050781 68.742188 " fill-opacity="1" fill-rule="evenodd"/><path fill="#ff84f6" d="M 1068.8125 198.496094 C 1082.847656 211.996094 1101.867188 220.382812 1122.878906 220.59375 C 1143.894531 220.800781 1163.0625 212.796875 1177.382812 199.578125 C 1163.328125 186.078125 1144.3125 177.691406 1123.316406 177.480469 C 1102.304688 177.273438 1083.113281 185.277344 1068.8125 198.496094 " fill-opacity="1" fill-rule="evenodd"/><path fill="#ff84f6" d="M 1062.765625 42.746094 C 1076.289062 56.800781 1084.65625 75.816406 1084.863281 96.832031 C 1085.074219 117.824219 1077.085938 137.011719 1063.851562 151.3125 C 1050.347656 137.28125 1041.960938 118.261719 1041.753906 97.25 C 1041.542969 76.234375 1049.550781 57.066406 1062.765625 42.746094 " fill-opacity="1" fill-rule="evenodd"/><path fill="#ff84f6" d="M 1189.722656 86.238281 C 1170.421875 83.652344 1150.128906 88.140625 1133.074219 100.40625 C 1115.996094 112.671875 1105.269531 130.472656 1101.5625 149.582031 C 1120.863281 152.167969 1141.15625 147.683594 1158.230469 135.433594 C 1175.289062 123.167969 1186.015625 105.367188 1189.722656 86.238281 " fill-opacity="1" fill-rule="evenodd"/><path fill="#ff84f6" d="M 690.964844 15.265625 C 691.554688 34.738281 699.253906 54.042969 714.125 68.894531 C 728.980469 83.746094 748.28125 91.46875 767.734375 92.039062 C 767.183594 72.5625 759.464844 53.261719 744.589844 38.410156 C 729.738281 23.558594 710.4375 15.835938 690.964844 15.265625 " fill-opacity="1" fill-rule="evenodd"/><path fill="#ff84f6" d="M 868.773438 -0.785156 C 868.222656 18.671875 860.5 37.972656 845.648438 52.824219 C 830.777344 67.695312 811.476562 75.398438 792.019531 75.988281 C 792.589844 56.515625 800.292969 37.210938 815.164062 22.359375 C 830.015625 7.488281 849.320312 -0.214844 868.773438 -0.785156 " fill-opacity="1" fill-rule="evenodd"/><path fill="#ff84f6" d="M 989.550781 20.820312 C 983.121094 39.207031 969.945312 55.277344 951.269531 64.9375 C 932.632812 74.617188 911.902344 76.140625 893.171875 70.796875 C 899.601562 52.425781 912.777344 36.335938 931.433594 26.675781 C 950.089844 16.996094 970.820312 15.476562 989.550781 20.820312 " fill-opacity="1" fill-rule="evenodd"/><path fill="#ff84f6" d="M 889.617188 82.242188 C 889.046875 101.71875 881.324219 121.019531 866.472656 135.871094 C 851.621094 150.742188 832.316406 158.445312 812.84375 159.015625 C 813.414062 139.542969 821.117188 120.238281 835.988281 105.386719 C 850.839844 90.535156 870.140625 82.832031 889.617188 82.242188 " fill-opacity="1" fill-rule="evenodd"/><path fill="#ff84f6" d="M 1080.128906 580.054688 C 1086.101562 598.597656 1098.859375 614.988281 1117.269531 625.144531 C 1135.660156 635.28125 1156.347656 637.332031 1175.214844 632.464844 C 1169.242188 613.921875 1156.484375 597.53125 1138.074219 587.375 C 1119.683594 577.238281 1098.992188 575.203125 1080.128906 580.054688 " fill-opacity="1" fill-rule="evenodd"/><path fill="#ff84f6" d="M 1073.339844 545.386719 C 1067.578125 526.769531 1068.625 506.019531 1077.867188 487.15625 C 1087.109375 468.289062 1102.875 454.730469 1121.109375 447.886719 C 1126.871094 466.484375 1125.828125 487.25 1116.585938 506.117188 C 1107.34375 524.980469 1091.578125 538.539062 1073.339844 545.386719 " fill-opacity="1" fill-rule="evenodd"/><path fill="#ff84f6" d="M 1110.765625 555.960938 C 1122.804688 540.652344 1140.46875 529.714844 1161.253906 526.597656 C 1182.023438 523.476562 1202.125 528.746094 1218.136719 539.851562 C 1206.117188 555.160156 1188.429688 566.113281 1167.644531 569.234375 C 1146.878906 572.351562 1126.757812 567.085938 1110.765625 555.960938 " fill-opacity="1" fill-rule="evenodd"/><g clip-path="url(#0c4a34847d)"><path fill="#ff84f6" d="M 1319.230469 280.609375 C 1329.976562 296.832031 1346.691406 309.175781 1367.152344 313.984375 C 1387.617188 318.777344 1408.078125 315.144531 1424.925781 305.371094 C 1414.183594 289.132812 1397.449219 276.789062 1377.003906 271.996094 C 1356.542969 267.203125 1336.078125 270.816406 1319.230469 280.609375 " fill-opacity="1" fill-rule="evenodd"/></g><path fill="#ff84f6" d="M 1345.226562 362.441406 C 1342.03125 343.234375 1331.761719 325.148438 1315.027344 312.464844 C 1298.292969 299.742188 1278.117188 294.722656 1258.757812 296.8125 C 1261.96875 316.019531 1272.21875 334.085938 1288.972656 346.808594 C 1305.710938 359.496094 1325.867188 364.515625 1345.226562 362.441406 " fill-opacity="1" fill-rule="evenodd"/><path fill="#ff84f6" d="M 1256.550781 270.191406 C 1256.835938 250.714844 1264.269531 231.300781 1278.914062 216.238281 C 1293.578125 201.175781 1312.746094 193.191406 1332.21875 192.335938 C 1331.914062 211.808594 1324.480469 231.222656 1309.835938 246.285156 C 1295.191406 261.367188 1275.984375 269.335938 1256.550781 270.191406 " fill-opacity="1" fill-rule="evenodd"/><path fill="#ff84f6" d="M 772.773438 510.660156 C 757.730469 498.300781 747.195312 480.386719 744.515625 459.542969 C 741.851562 438.699219 747.558594 418.714844 759.027344 402.96875 C 774.085938 415.328125 784.640625 433.242188 787.285156 454.085938 C 789.949219 474.929688 784.242188 494.894531 772.773438 510.660156 " fill-opacity="1" fill-rule="evenodd"/><path fill="#ff84f6" d="M 800.558594 529.832031 C 814.667969 543.238281 833.742188 551.507812 854.757812 551.566406 C 875.769531 551.644531 894.902344 543.523438 909.128906 530.210938 C 894.996094 516.804688 875.921875 508.53125 854.910156 508.453125 C 833.894531 508.378906 814.765625 516.519531 800.558594 529.832031 " fill-opacity="1" fill-rule="evenodd"/><path fill="#ff84f6" d="M 819.386719 489.570312 C 822.199219 470.308594 832.070312 452.011719 848.539062 438.964844 C 865.007812 425.902344 885.050781 420.464844 904.46875 422.117188 C 901.671875 441.402344 891.785156 459.695312 875.316406 472.742188 C 858.847656 485.785156 838.800781 491.246094 819.386719 489.570312 " fill-opacity="1" fill-rule="evenodd"/><path fill="#ff84f6" d="M 588.839844 49.421875 C 573.398438 61.289062 562.253906 78.839844 558.910156 99.585938 C 555.582031 120.335938 560.621094 140.492188 571.554688 156.621094 C 587.015625 144.734375 598.140625 127.179688 601.488281 106.453125 C 604.816406 85.707031 599.777344 65.546875 588.839844 49.421875 " fill-opacity="1" fill-rule="evenodd"/><path fill="#ff84f6" d="M 597.683594 192.335938 C 613.011719 180.296875 632.753906 173.847656 653.691406 175.75 C 674.628906 177.632812 692.902344 187.523438 705.816406 202.109375 C 690.507812 214.128906 670.75 220.574219 649.808594 218.691406 C 628.890625 216.789062 610.597656 206.921875 597.683594 192.335938 " fill-opacity="1" fill-rule="evenodd"/><path fill="#ff84f6" d="M 621.207031 154.050781 C 627.882812 135.757812 641.273438 119.839844 660.042969 110.410156 C 678.8125 100.976562 699.558594 99.703125 718.214844 105.273438 C 711.558594 123.585938 698.191406 139.484375 679.402344 148.917969 C 660.632812 158.371094 639.882812 159.625 621.207031 154.050781 " fill-opacity="1" fill-rule="evenodd"/><path fill="#ff84f6" d="M 895.113281 632.027344 C 893.628906 651.445312 899.296875 671.449219 912.511719 687.785156 C 925.730469 704.101562 944.117188 713.78125 963.421875 716.40625 C 964.886719 696.992188 959.238281 676.984375 946.019531 660.648438 C 932.804688 644.3125 914.414062 634.613281 895.113281 632.027344 " fill-opacity="1" fill-rule="evenodd"/><path fill="#ff84f6" d="M 940.5625 615.882812 C 957.089844 626.191406 977.417969 630.488281 998.03125 626.378906 C 1018.628906 622.253906 1035.761719 610.480469 1047.039062 594.601562 C 1030.511719 584.277344 1010.183594 579.976562 989.570312 584.105469 C 968.972656 588.210938 951.859375 599.984375 940.5625 615.882812 " fill-opacity="1" fill-rule="evenodd"/><path fill="#ff84f6" d="M 969.640625 648.363281 C 974.925781 667.113281 987.117188 683.945312 1005.164062 694.726562 C 1023.191406 705.527344 1043.789062 708.285156 1062.804688 704.101562 C 1057.5 685.351562 1045.308594 668.523438 1027.28125 657.738281 C 1009.253906 646.9375 988.65625 644.179688 969.640625 648.363281 " fill-opacity="1" fill-rule="evenodd"/><path fill="#ff84f6" d="M 451.632812 419.4375 C 470.214844 413.597656 490.980469 414.585938 509.882812 423.773438 C 528.785156 432.957031 542.382812 448.664062 549.285156 466.863281 C 530.707031 472.703125 509.941406 471.714844 491.035156 462.546875 C 472.132812 453.363281 458.535156 437.65625 451.632812 419.4375 " fill-opacity="1" fill-rule="evenodd"/><path fill="#ff84f6" d="M 513.285156 373.472656 C 531.867188 379.289062 552.632812 378.320312 571.515625 369.136719 C 590.421875 359.949219 604.035156 344.242188 610.941406 326.042969 C 592.359375 320.203125 571.59375 321.175781 552.691406 330.359375 C 533.789062 339.527344 520.191406 355.253906 513.285156 373.472656 " fill-opacity="1" fill-rule="evenodd"/><path fill="#ff84f6" d="M 626.855469 382.066406 C 645.457031 376.25 666.203125 377.21875 685.105469 386.402344 C 704.007812 395.589844 717.605469 411.296875 724.507812 429.515625 C 705.929688 435.335938 685.183594 434.363281 666.261719 425.179688 C 647.355469 415.992188 633.777344 400.285156 626.855469 382.066406 " fill-opacity="1" fill-rule="evenodd"/><path fill="#ff84f6" d="M 642.316406 363.011719 C 651.351562 345.746094 666.714844 331.765625 686.570312 324.902344 C 706.425781 318.019531 727.152344 319.519531 744.914062 327.507812 C 735.902344 344.773438 720.535156 358.773438 700.679688 365.636719 C 680.808594 372.519531 660.078125 371 642.316406 363.011719 " fill-opacity="1" fill-rule="evenodd"/><path fill="#ff84f6" d="M 207.703125 423.90625 C 192.257812 435.753906 181.117188 453.304688 177.769531 474.054688 C 174.421875 494.800781 179.480469 514.957031 190.414062 531.085938 C 205.875 519.21875 216.980469 501.664062 220.328125 480.917969 C 223.695312 460.171875 218.636719 440.011719 207.703125 423.90625 " fill-opacity="1" fill-rule="evenodd"/><path fill="#ff84f6" d="M 90.25 601.011719 C 107.308594 591.617188 127.867188 588.460938 148.195312 593.707031 C 168.5625 598.976562 184.996094 611.679688 195.378906 628.167969 C 178.300781 637.5625 157.761719 640.71875 137.433594 635.449219 C 117.085938 630.203125 100.636719 617.5 90.25 601.011719 " fill-opacity="1" fill-rule="evenodd"/><path fill="#ff84f6" d="M 572.164062 633.226562 C 581.195312 615.976562 596.5625 601.980469 616.417969 595.117188 C 636.269531 588.230469 657 589.734375 674.761719 597.738281 C 665.746094 614.988281 650.382812 628.984375 630.507812 635.851562 C 610.652344 642.734375 589.925781 641.230469 572.164062 633.226562 " fill-opacity="1" fill-rule="evenodd"/><path fill="#ff84f6" d="M 566.554688 658.175781 C 563.246094 677.363281 566.972656 697.828125 578.589844 715.324219 C 590.210938 732.835938 607.59375 744.230469 626.570312 748.640625 C 629.863281 729.453125 626.132812 709.007812 614.515625 691.476562 C 602.914062 673.980469 585.511719 662.589844 566.554688 658.175781 " fill-opacity="1" fill-rule="evenodd"/><path fill="#ff84f6" d="M 639.730469 662 C 650.96875 677.917969 668.066406 689.746094 688.664062 693.890625 C 709.257812 698.054688 729.605469 693.816406 746.152344 683.527344 C 734.910156 667.628906 717.816406 655.800781 697.21875 651.632812 C 676.625 647.46875 656.277344 651.710938 639.730469 662 " fill-opacity="1" fill-rule="evenodd"/><path fill="#ff84f6" d="M 617.234375 476.773438 C 632.371094 489.019531 652.035156 495.75 673.011719 494.171875 C 693.949219 492.574219 712.375 482.953125 725.5 468.558594 C 710.359375 456.308594 690.695312 449.578125 669.742188 451.15625 C 648.785156 452.753906 630.355469 462.375 617.234375 476.773438 " fill-opacity="1" fill-rule="evenodd"/><path fill="#ff84f6" d="M 804.4375 204.886719 C 816.304688 220.347656 833.839844 231.488281 854.585938 234.835938 C 875.335938 238.203125 895.492188 233.183594 911.617188 222.246094 C 899.769531 206.804688 882.21875 195.660156 861.46875 192.277344 C 840.742188 188.929688 820.566406 193.96875 804.4375 204.886719 " fill-opacity="1" fill-rule="evenodd"/><path fill="#ff84f6" d="M 79.410156 831.632812 C 84.832031 812.917969 97.117188 796.164062 115.238281 785.496094 C 133.324219 774.828125 153.941406 772.183594 172.9375 776.5 C 167.519531 795.214844 155.214844 811.96875 137.109375 822.636719 C 119.023438 833.285156 98.390625 835.929688 79.410156 831.632812 " fill-opacity="1" fill-rule="evenodd"/><path fill="#ff84f6" d="M 464.46875 723.425781 C 467.417969 742.6875 477.421875 760.886719 494.003906 773.820312 C 510.566406 786.75 530.648438 792.058594 550.046875 790.230469 C 547.097656 770.96875 537.097656 752.765625 520.53125 739.835938 C 503.96875 726.902344 483.847656 721.617188 464.46875 723.425781 " fill-opacity="1" fill-rule="evenodd"/><path fill="#ff84f6" d="M 345.328125 196.347656 C 329.886719 208.214844 318.761719 225.765625 315.414062 246.511719 C 312.066406 267.242188 317.105469 287.417969 328.042969 303.527344 C 343.503906 291.660156 354.628906 274.109375 357.972656 253.378906 C 361.320312 232.632812 356.261719 212.472656 345.328125 196.347656 " fill-opacity="1" fill-rule="evenodd"/><path fill="#ff84f6" d="M 197.792969 372.882812 C 217.09375 375.410156 237.367188 370.886719 254.40625 358.582031 C 271.445312 346.257812 282.132812 328.457031 285.785156 309.308594 C 266.484375 306.777344 246.210938 311.324219 229.171875 323.628906 C 212.132812 335.933594 201.445312 353.75 197.792969 372.882812 " fill-opacity="1" fill-rule="evenodd"/></svg>