<svg xmlns="http://www.w3.org/2000/svg" width="400" height="600" viewBox="0 0 400 600"><rect width="100%" height="100%" fill="#DDDDDD"/><path fill="#999999" d="M158.74 259.685h5.85q1.61 0 2.71-.38 1.1-.39 1.75-1.03.66-.65.95-1.51t.29-1.83q0-1.01-.33-1.81-.32-.81-1.01-1.38-.68-.57-1.77-.87t-2.61-.3h-5.83zm4.93-22.1h-4.93v8.99h4.6q2.97 0 4.49-1.08 1.51-1.07 1.51-3.41 0-2.43-1.37-3.47-1.38-1.03-4.3-1.03m-10.71-4.47h10.71q3.05 0 5.22.58t3.56 1.66q1.38 1.07 2.03 2.6.64 1.52.64 3.44 0 1.09-.32 2.09t-1 1.88q-.67.87-1.72 1.58-1.04.71-2.48 1.2 6.41 1.44 6.41 6.92 0 1.98-.76 3.66-.75 1.67-2.19 2.89-1.44 1.21-3.55 1.9-2.1.69-4.81.69h-11.74zm37.24 8.69q2.45 0 4.46.79 2.01.8 3.44 2.26t2.2 3.57q.78 2.11.78 4.71 0 2.62-.78 4.73-.77 2.1-2.2 3.59-1.43 1.48-3.44 2.28-2.01.79-4.46.79-2.48 0-4.5-.79-2.02-.8-3.45-2.28-1.43-1.49-2.21-3.59-.79-2.11-.79-4.73 0-2.6.79-4.71.78-2.11 2.21-3.57t3.45-2.26q2.02-.79 4.5-.79m0 18.64q2.75 0 4.07-1.85t1.32-5.42-1.32-5.44-4.07-1.87q-2.8 0-4.14 1.88-1.35 1.88-1.35 5.43t1.35 5.41q1.34 1.86 4.14 1.86m24.7-18.64q2.45 0 4.46.79 2.01.8 3.44 2.26t2.2 3.57q.78 2.11.78 4.71 0 2.62-.78 4.73-.77 2.1-2.2 3.59-1.43 1.48-3.44 2.28-2.01.79-4.46.79-2.47 0-4.49-.79-2.02-.8-3.45-2.28-1.43-1.49-2.22-3.59-.78-2.11-.78-4.73 0-2.6.78-4.71.79-2.11 2.22-3.57t3.45-2.26q2.02-.79 4.49-.79m0 18.64q2.75 0 4.07-1.85 1.33-1.85 1.33-5.42t-1.33-5.44q-1.32-1.87-4.07-1.87-2.8 0-4.14 1.88t-1.34 5.43 1.34 5.41 4.14 1.86m14.94-28.19h5.31v18.3h.99q.54 0 .85-.14t.64-.57l5.48-6.77q.34-.46.76-.69.42-.24 1.09-.24h4.86l-6.86 8.19q-.73.97-1.59 1.49.45.32.8.75.36.43.68.92l7.35 10.71h-4.79q-.62 0-1.08-.2-.45-.21-.75-.75l-5.63-8.36q-.3-.49-.63-.64-.32-.16-.96-.16h-1.21v10.11h-5.31zm-125.96 76.22q.48 0 .84.36l2.28 2.48q-1.89 2.34-4.65 3.59-2.77 1.24-6.64 1.24-3.46 0-6.22-1.18t-4.72-3.29q-1.96-2.1-3-5.03-1.04-2.92-1.04-6.38 0-3.51 1.12-6.42 1.12-2.92 3.15-5.02 2.03-2.11 4.85-3.28 2.81-1.17 6.23-1.17 3.4 0 6.03 1.12 2.63 1.11 4.48 2.92l-1.93 2.69q-.17.25-.44.45-.27.19-.74.19-.33 0-.67-.18t-.75-.45-.95-.59q-.54-.33-1.25-.6-.71-.26-1.64-.45-.94-.18-2.16-.18-2.09 0-3.82.74t-2.98 2.15q-1.24 1.41-1.93 3.44t-.69 4.64q0 2.62.74 4.66.75 2.04 2.01 3.44 1.27 1.4 2.99 2.14t3.7.74q1.18 0 2.14-.13t1.76-.41q.81-.27 1.53-.72.72-.44 1.43-1.08.21-.19.45-.31t.49-.12m16.02-15.07q2.45 0 4.46.79 2.01.8 3.44 2.26t2.21 3.57q.77 2.11.77 4.71 0 2.62-.77 4.73-.78 2.1-2.21 3.59-1.43 1.48-3.44 2.28-2.01.79-4.46.79-2.47 0-4.49-.79-2.02-.8-3.45-2.28-1.43-1.49-2.22-3.59-.78-2.11-.78-4.73 0-2.6.78-4.71.79-2.11 2.22-3.57t3.45-2.26q2.02-.79 4.49-.79m0 18.64q2.75 0 4.08-1.85 1.32-1.85 1.32-5.42t-1.32-5.44q-1.33-1.87-4.08-1.87-2.79 0-4.14 1.88-1.34 1.88-1.34 5.43t1.34 5.41q1.35 1.86 4.14 1.86m30.64-18.3h4.19l-8.75 22.06h-4.81l-8.75-22.06h4.38q.6 0 1 .28t.53.71l4.25 11.78q.35 1.03.61 2.02.25.99.45 1.98.21-.99.47-1.98t.62-2.02l4.35-11.78q.15-.43.54-.71.38-.28.92-.28m11.2 8.49h10.02q0-1.03-.29-1.94-.29-.92-.87-1.6-.58-.69-1.47-1.09-.9-.4-2.08-.4-2.3 0-3.62 1.31-1.32 1.32-1.69 3.72m13.55 3.21h-13.66q.13 1.7.61 2.93.47 1.24 1.24 2.04.78.81 1.84 1.21 1.07.4 2.36.4t2.22-.3q.94-.31 1.63-.67.7-.37 1.23-.67t1.02-.3q.67 0 .99.5l1.53 1.93q-.88 1.03-1.98 1.73t-2.29 1.12-2.43.59-2.4.17q-2.3 0-4.28-.76-1.97-.76-3.44-2.26-1.46-1.49-2.3-3.7-.84-2.2-.84-5.1 0-2.26.74-4.25.73-1.99 2.09-3.46 1.37-1.47 3.33-2.33 1.97-.86 4.44-.86 2.09 0 3.85.66 1.77.67 3.03 1.95 1.27 1.28 1.99 3.14t.72 4.24q0 1.21-.25 1.63-.26.42-.99.42m9.91-10.37.32 2.5q1.03-1.98 2.45-3.11t3.36-1.13q1.52 0 2.45.67l-.35 3.98q-.11.38-.31.54-.2.17-.55.17-.32 0-.95-.11-.64-.11-1.24-.11-.88 0-1.57.26t-1.24.74q-.54.48-.96 1.17t-.79 1.57v13.59h-5.31v-22.06h3.12q.82 0 1.14.29t.43 1.04m28.44-10.36v31.09h-5.8v-31.09zm11.42 31.09h-5.31v-22.06h3.24q1.04 0 1.36.97l.34 1.63q.58-.64 1.22-1.18.63-.54 1.35-.92.72-.39 1.55-.62.83-.22 1.82-.22 2.08 0 3.43 1.13 1.34 1.12 2.01 3 .51-1.1 1.29-1.89.77-.78 1.7-1.28.92-.49 1.96-.73 1.05-.23 2.1-.23 1.83 0 3.25.56 1.41.56 2.38 1.63.97 1.08 1.47 2.62.51 1.55.51 3.55v14.04h-5.31v-14.04q0-2.11-.93-3.17-.92-1.06-2.7-1.06-.82 0-1.52.27-.7.28-1.23.81-.52.53-.82 1.32-.3.8-.3 1.83v14.04h-5.34v-14.04q0-2.21-.89-3.22t-2.61-1.01q-1.16 0-2.16.56-1 .57-1.86 1.56zm42.35-5.7v-3.72q-2.3.11-3.87.4t-2.51.74q-.95.45-1.36 1.06-.4.6-.4 1.31 0 1.4.82 2 .83.6 2.16.6 1.64 0 2.83-.59t2.33-1.8m-11.22-11.59-.95-1.69q3.81-3.49 9.16-3.49 1.94 0 3.47.64 1.52.63 2.58 1.76 1.05 1.13 1.6 2.7t.55 3.44v13.93h-2.41q-.76 0-1.16-.23-.41-.22-.65-.91l-.47-1.59q-.84.75-1.64 1.32-.79.57-1.65.96t-1.84.59-2.16.2q-1.4 0-2.58-.37-1.18-.38-2.04-1.13t-1.34-1.87q-.47-1.12-.47-2.6 0-.84.28-1.67t.91-1.58q.64-.75 1.65-1.42t2.48-1.16q1.48-.49 3.43-.81 1.96-.31 4.47-.37v-1.29q0-2.22-.94-3.28-.95-1.06-2.73-1.06-1.29 0-2.14.3t-1.5.67q-.64.38-1.17.68-.52.3-1.17.3-.56 0-.95-.29-.38-.29-.62-.68m29.46 5.72q.98 0 1.72-.27.73-.26 1.21-.74.48-.47.73-1.14.25-.66.25-1.46 0-1.63-.98-2.59t-2.93-.96q-1.96 0-2.94.96t-.98 2.59q0 .78.25 1.44.25.67.73 1.15.48.49 1.23.75.74.27 1.71.27m5.99 12.56q0-.65-.38-1.05-.39-.41-1.06-.64-.66-.22-1.55-.33-.9-.11-1.9-.16-1-.06-2.06-.1-1.07-.04-2.08-.17-.88.49-1.43 1.16-.54.67-.54 1.55 0 .58.29 1.08.29.51.92.87.64.37 1.65.57 1.01.21 2.47.21 1.48 0 2.56-.23 1.07-.22 1.77-.62t1.02-.95.32-1.19m-1.05-22.3h6.34v1.98q0 .95-1.14 1.16l-1.97.37q.45 1.14.45 2.49 0 1.64-.66 2.96-.65 1.32-1.82 2.25-1.16.92-2.74 1.42-1.58.51-3.4.51-.65 0-1.25-.06-.6-.07-1.18-.18-1.04.63-1.04 1.4 0 .67.62.98.61.31 1.62.44t2.3.16 2.65.14q1.35.11 2.64.38t2.3.85 1.62 1.58q.62 1 .62 2.57 0 1.46-.72 2.83-.72 1.38-2.09 2.46-1.36 1.07-3.35 1.73-1.99.65-4.53.65-2.49 0-4.34-.48-1.85-.49-3.08-1.29-1.22-.81-1.82-1.86-.61-1.06-.61-2.19 0-1.55.94-2.6.93-1.04 2.57-1.66-.88-.45-1.4-1.21-.52-.75-.52-1.97 0-.5.19-1.03.18-.52.54-1.04.35-.51.89-.98.53-.46 1.27-.82-1.68-.91-2.64-2.41-.95-1.51-.95-3.53 0-1.63.65-2.95.66-1.33 1.83-2.26 1.17-.94 2.77-1.43 1.6-.5 3.5-.5 1.41 0 2.66.29t2.28.85m13.89 7.74h10.02q0-1.03-.29-1.94-.29-.92-.87-1.6-.58-.69-1.47-1.09-.9-.4-2.08-.4-2.3 0-3.62 1.31-1.32 1.32-1.69 3.72m13.54 3.21h-13.65q.13 1.7.6 2.93.48 1.24 1.25 2.04.78.81 1.84 1.21t2.35.4 2.23-.3q.93-.31 1.63-.67.7-.37 1.23-.67t1.02-.3q.67 0 .99.5l1.53 1.93q-.89 1.03-1.98 1.73-1.1.7-2.29 1.12-1.2.42-2.43.59-1.24.17-2.4.17-2.3 0-4.28-.76t-3.44-2.26q-1.46-1.49-2.3-3.7-.84-2.2-.84-5.1 0-2.26.73-4.25.74-1.99 2.1-3.46 1.37-1.47 3.33-2.33 1.97-.86 4.44-.86 2.09 0 3.85.66 1.76.67 3.03 1.95t1.99 3.14.72 4.24q0 1.21-.26 1.63-.25.42-.99.42m-214.2 57.29q1.68 0 3-.55 1.32-.56 2.22-1.57.91-1.01 1.39-2.46.49-1.44.49-3.22v-18.62h5.78v18.62q0 2.77-.89 5.13-.9 2.35-2.56 4.06-1.67 1.71-4.05 2.67-2.39.95-5.38.95-3.01 0-5.4-.95-2.38-.96-4.05-2.67t-2.56-4.06q-.89-2.36-.89-5.13v-18.62h5.78v18.6q0 1.78.49 3.22.48 1.44 1.39 2.47.92 1.02 2.24 1.58 1.32.55 3 .55m23.18-16.42.36 1.74q.67-.67 1.41-1.24t1.57-.96q.83-.4 1.77-.63.95-.22 2.07-.22 1.8 0 3.2.61t2.33 1.72q.94 1.11 1.42 2.64.49 1.54.49 3.39v14.04h-5.31v-14.04q0-2.02-.93-3.13-.92-1.11-2.81-1.11-1.38 0-2.58.63-1.21.62-2.28 1.7v15.95h-5.31v-22.06h3.24q1.03 0 1.36.97m31.3 15.39v-3.72q-2.3.11-3.87.4t-2.51.74q-.95.45-1.36 1.06-.41.6-.41 1.31 0 1.4.83 2t2.16.6q1.64 0 2.83-.59t2.33-1.8m-11.22-11.59-.95-1.69q3.81-3.49 9.16-3.49 1.94 0 3.46.64 1.53.63 2.58 1.76 1.06 1.13 1.6 2.7.55 1.57.55 3.44v13.93h-2.41q-.75 0-1.16-.23-.4-.22-.64-.91l-.47-1.59q-.84.75-1.64 1.32-.79.57-1.65.96t-1.84.59-2.16.2q-1.4 0-2.58-.37-1.19-.38-2.05-1.13t-1.33-1.87-.47-2.6q0-.84.28-1.67t.91-1.58q.64-.75 1.65-1.42t2.48-1.16 3.43-.81q1.96-.31 4.47-.37v-1.29q0-2.22-.94-3.28-.95-1.07-2.74-1.07-1.29 0-2.13.31-.85.3-1.5.67-.64.38-1.17.68t-1.17.3q-.56 0-.95-.29t-.62-.68m37.09-4.77h4.19l-8.75 22.06h-4.82l-8.75-22.06h4.39q.6 0 1 .28.39.28.52.71l4.26 11.78q.34 1.03.6 2.02t.45 1.98q.22-.99.48-1.98t.62-2.02l4.34-11.78q.15-.43.54-.71t.93-.28m18.66 16.36v-3.72q-2.3.11-3.87.4t-2.52.74q-.94.45-1.35 1.06-.41.6-.41 1.31 0 1.4.83 2 .82.6 2.16.6 1.63 0 2.82-.59 1.2-.59 2.34-1.8m-11.23-11.59-.94-1.69q3.8-3.49 9.16-3.49 1.93 0 3.46.64 1.53.63 2.58 1.76t1.6 2.7.55 3.44v13.93h-2.41q-.75 0-1.16-.23-.41-.22-.64-.91l-.48-1.59q-.84.75-1.63 1.32-.8.57-1.66.96t-1.84.59q-.97.2-2.16.2-1.39 0-2.58-.37-1.18-.38-2.04-1.13t-1.33-1.87-.47-2.6q0-.84.27-1.67.28-.83.92-1.58.63-.75 1.64-1.42t2.49-1.16q1.47-.49 3.43-.81 1.95-.31 4.47-.37v-1.29q0-2.22-.95-3.28-.94-1.07-2.73-1.07-1.29 0-2.14.31-.85.3-1.49.67-.65.38-1.17.68-.53.3-1.18.3-.55 0-.94-.29t-.63-.68m21.57-4.77h5.33v22.06h-5.33zm6.06-6.43q0 .69-.28 1.29t-.74 1.06q-.46.45-1.08.72-.63.27-1.34.27-.69 0-1.3-.27t-1.06-.72q-.45-.46-.72-1.06t-.27-1.29q0-.71.27-1.33t.72-1.08q.45-.45 1.06-.72.61-.26 1.3-.26.71 0 1.34.26.62.27 1.08.72.46.46.74 1.08t.28 1.33m4.75-3.46h5.31v31.95h-5.31zm22.28 26.25v-3.72q-2.3.11-3.87.4t-2.52.74q-.94.45-1.35 1.06-.41.6-.41 1.31 0 1.4.83 2 .82.6 2.16.6 1.63 0 2.82-.59 1.2-.59 2.34-1.8m-11.23-11.59-.94-1.69q3.8-3.49 9.16-3.49 1.93 0 3.46.64 1.53.63 2.58 1.76t1.6 2.7.55 3.44v13.93h-2.41q-.75 0-1.16-.23-.41-.22-.64-.91l-.48-1.59q-.84.75-1.63 1.32-.8.57-1.66.96t-1.84.59q-.97.2-2.16.2-1.39 0-2.58-.37-1.18-.38-2.04-1.13t-1.33-1.87-.47-2.6q0-.84.27-1.67.28-.83.92-1.58.63-.75 1.64-1.42t2.49-1.16q1.47-.49 3.43-.81 1.95-.31 4.47-.37v-1.29q0-2.22-.95-3.28-.94-1.07-2.73-1.07-1.29 0-2.14.31-.85.3-1.49.67-.65.38-1.17.68-.53.3-1.18.3-.55 0-.94-.29t-.63-.68m26.71 1.68v9.89q.9 1.1 1.97 1.55 1.06.45 2.24.45 1.23 0 2.21-.44.97-.44 1.66-1.38.69-.93 1.06-2.38.36-1.45.36-3.47 0-3.64-1.2-5.26-1.21-1.63-3.46-1.63-1.53 0-2.67.7t-2.17 1.97m0-16.34v12.6q1.33-1.4 2.95-2.23 1.63-.82 3.71-.82 1.92 0 3.45.75 1.54.75 2.63 2.16 1.08 1.41 1.66 3.41t.58 4.49q0 2.69-.66 4.88-.67 2.2-1.91 3.75-1.23 1.56-2.97 2.42-1.75.86-3.87.86-1.04 0-1.87-.2-.84-.21-1.55-.57-.71-.37-1.3-.89-.59-.53-1.13-1.18l-.24 1.49q-.13.56-.44.79-.31.24-.85.24h-3.5v-31.95zm19.15 0h5.31v31.95h-5.31zm14.82 18.38h10.02q0-1.03-.29-1.94-.29-.92-.87-1.6-.58-.69-1.48-1.09-.89-.4-2.07-.4-2.3 0-3.62 1.31-1.33 1.32-1.69 3.72m13.54 3.21H295.6q.13 1.7.6 2.93.48 1.24 1.25 2.04.77.81 1.84 1.21 1.06.4 2.35.4t2.23-.3q.93-.31 1.63-.67.7-.37 1.23-.67.52-.3 1.02-.3.66 0 .99.5l1.52 1.93q-.88 1.03-1.97 1.73-1.1.7-2.29 1.12-1.2.42-2.43.59-1.24.17-2.4.17-2.3 0-4.28-.76t-3.44-2.26q-1.46-1.49-2.3-3.7-.84-2.2-.84-5.1 0-2.26.73-4.25t2.1-3.46q1.36-1.47 3.33-2.33t4.44-.86q2.09 0 3.85.66 1.76.67 3.03 1.95t1.99 3.14.72 4.24q0 1.21-.26 1.63t-.99.42"/></svg>