<svg xmlns="http://www.w3.org/2000/svg" xmlns:xlink="http://www.w3.org/1999/xlink" width="1024" zoomAndPan="magnify" viewBox="0 0 768 767.999994" height="1024" preserveAspectRatio="xMidYMid meet" version="1.0"><defs><clipPath id="55300576f6"><path d="M 484 0 L 666.699219 0 L 666.699219 183 L 484 183 Z M 484 0 " clip-rule="nonzero"/></clipPath></defs><path fill="#f6c091" d="M 575.542969 768 C 567.972656 768 561.835938 761.863281 561.835938 754.363281 L 561.835938 168.683594 C 561.835938 161.113281 567.972656 154.976562 575.542969 155.046875 C 583.042969 155.046875 589.175781 161.113281 589.175781 168.683594 L 589.175781 754.363281 C 589.175781 761.863281 583.042969 767.933594 575.542969 768 " fill-opacity="1" fill-rule="nonzero"/><g clip-path="url(#55300576f6)"><path fill="#f6c091" d="M 575.40625 27.339844 C 540.15625 27.339844 511.585938 55.910156 511.585938 91.160156 C 511.585938 126.410156 540.15625 154.976562 575.40625 154.976562 C 610.65625 154.976562 639.222656 126.410156 639.222656 91.160156 C 639.222656 55.976562 610.65625 27.410156 575.40625 27.339844 Z M 575.40625 182.386719 C 525.085938 182.386719 484.246094 141.546875 484.246094 91.160156 C 484.246094 40.839844 525.085938 0 575.40625 0 C 625.792969 0 666.632812 40.839844 666.632812 91.160156 C 666.632812 141.546875 625.792969 182.386719 575.40625 182.386719 " fill-opacity="1" fill-rule="nonzero"/></g><path fill="#f6c091" d="M 373.382812 613.023438 C 365.882812 612.953125 359.746094 606.886719 359.746094 599.316406 L 359.746094 13.703125 C 359.746094 6.136719 365.882812 0 373.382812 0 C 380.949219 0 387.085938 6.136719 387.085938 13.703125 L 387.085938 599.316406 C 387.085938 606.886719 380.949219 613.023438 373.382812 613.023438 " fill-opacity="1" fill-rule="nonzero"/><path fill="#f6c091" d="M 373.382812 613.023438 C 338.132812 613.023438 309.5625 641.589844 309.5625 676.839844 C 309.5625 712.089844 338.132812 740.660156 373.382812 740.660156 C 408.632812 740.660156 437.199219 712.089844 437.199219 676.839844 C 437.199219 641.589844 408.632812 613.023438 373.382812 613.023438 Z M 373.382812 768 C 323.0625 768 282.222656 727.160156 282.222656 676.839844 C 282.222656 626.453125 323.0625 585.613281 373.382812 585.613281 C 423.769531 585.613281 464.609375 626.453125 464.609375 676.839844 C 464.609375 727.160156 423.769531 768 373.382812 768 " fill-opacity="1" fill-rule="nonzero"/><path fill="#f6c091" d="M 171.425781 768 C 163.925781 768 157.792969 761.863281 157.792969 754.363281 L 157.792969 168.683594 C 157.792969 161.113281 163.859375 154.976562 171.425781 154.976562 C 178.996094 154.976562 185.132812 161.113281 185.132812 168.613281 C 185.132812 168.683594 185.132812 168.683594 185.132812 168.683594 L 185.132812 754.363281 C 185.0625 761.863281 178.996094 767.933594 171.425781 768 " fill-opacity="1" fill-rule="nonzero"/><path fill="#f6c091" d="M 171.359375 27.339844 C 136.109375 27.339844 107.542969 55.910156 107.542969 91.160156 C 107.542969 126.410156 136.109375 154.976562 171.359375 154.976562 C 206.609375 154.976562 235.175781 126.410156 235.175781 91.160156 C 235.175781 55.976562 206.609375 27.410156 171.359375 27.339844 Z M 171.359375 182.386719 C 121.042969 182.386719 80.199219 141.546875 80.199219 91.160156 C 80.199219 40.839844 121.042969 0 171.359375 0 C 221.746094 0 262.585938 40.839844 262.585938 91.160156 C 262.585938 141.546875 221.746094 182.386719 171.359375 182.386719 " fill-opacity="1" fill-rule="nonzero"/></svg>