<svg xmlns="http://www.w3.org/2000/svg" xmlns:xlink="http://www.w3.org/1999/xlink" width="1024" zoomAndPan="magnify" viewBox="0 0 768 767.999994" height="1024" preserveAspectRatio="xMidYMid meet" version="1.0"><defs><clipPath id="e5c4a2156a"><path d="M 534 200 L 557 200 L 557 691.050781 L 534 691.050781 Z M 534 200 " clip-rule="nonzero"/></clipPath><clipPath id="8c897d37af"><path d="M 472 76.800781 L 618.605469 76.800781 L 618.605469 223 L 472 223 Z M 472 76.800781 " clip-rule="nonzero"/></clipPath><clipPath id="525307a821"><path d="M 373 76.800781 L 395 76.800781 L 395 568 L 373 568 Z M 373 76.800781 " clip-rule="nonzero"/></clipPath><clipPath id="96186561a7"><path d="M 311 545 L 457 545 L 457 691.050781 L 311 691.050781 Z M 311 545 " clip-rule="nonzero"/></clipPath><clipPath id="b8dccb8b2e"><path d="M 211 200 L 234 200 L 234 691.050781 L 211 691.050781 Z M 211 200 " clip-rule="nonzero"/></clipPath><clipPath id="5d2c50eb5f"><path d="M 149 76.800781 L 296 76.800781 L 296 223 L 149 223 Z M 149 76.800781 " clip-rule="nonzero"/></clipPath></defs><g clip-path="url(#e5c4a2156a)"><path fill="#232325" d="M 545.679688 691.191406 C 539.625 691.191406 534.714844 686.28125 534.714844 680.28125 L 534.714844 211.742188 C 534.714844 205.6875 539.625 200.78125 545.679688 200.835938 C 551.679688 200.835938 556.589844 205.6875 556.589844 211.742188 L 556.589844 680.28125 C 556.589844 686.28125 551.679688 691.136719 545.679688 691.191406 " fill-opacity="1" fill-rule="nonzero"/></g><g clip-path="url(#8c897d37af)"><path fill="#232325" d="M 545.570312 98.671875 C 517.371094 98.671875 494.515625 121.527344 494.515625 149.726562 C 494.515625 177.925781 517.371094 200.78125 545.570312 200.78125 C 573.769531 200.78125 596.625 177.925781 596.625 149.726562 C 596.625 121.582031 573.769531 98.726562 545.570312 98.671875 Z M 545.570312 222.707031 C 505.316406 222.707031 472.644531 190.035156 472.644531 149.726562 C 472.644531 109.472656 505.316406 76.800781 545.570312 76.800781 C 585.878906 76.800781 618.550781 109.472656 618.550781 149.726562 C 618.550781 190.035156 585.878906 222.707031 545.570312 222.707031 " fill-opacity="1" fill-rule="nonzero"/></g><g clip-path="url(#525307a821)"><path fill="#232325" d="M 383.953125 567.210938 C 377.953125 567.15625 373.046875 562.300781 373.046875 556.246094 L 373.046875 87.761719 C 373.046875 81.710938 377.953125 76.800781 383.953125 76.800781 C 390.007812 76.800781 394.917969 81.710938 394.917969 87.761719 L 394.917969 556.246094 C 394.917969 562.300781 390.007812 567.210938 383.953125 567.210938 " fill-opacity="1" fill-rule="nonzero"/></g><g clip-path="url(#96186561a7)"><path fill="#232325" d="M 383.953125 567.210938 C 355.753906 567.210938 332.902344 590.066406 332.902344 618.265625 C 332.902344 646.464844 355.753906 669.316406 383.953125 669.316406 C 412.15625 669.316406 435.007812 646.464844 435.007812 618.265625 C 435.007812 590.066406 412.15625 567.210938 383.953125 567.210938 Z M 383.953125 691.191406 C 343.699219 691.191406 311.027344 658.519531 311.027344 618.265625 C 311.027344 577.957031 343.699219 545.285156 383.953125 545.285156 C 424.261719 545.285156 456.9375 577.957031 456.9375 618.265625 C 456.9375 658.519531 424.261719 691.191406 383.953125 691.191406 " fill-opacity="1" fill-rule="nonzero"/></g><g clip-path="url(#b8dccb8b2e)"><path fill="#232325" d="M 222.394531 691.191406 C 216.394531 691.191406 211.484375 686.28125 211.484375 680.28125 L 211.484375 211.742188 C 211.484375 205.6875 216.339844 200.78125 222.394531 200.78125 C 228.449219 200.78125 233.355469 205.6875 233.355469 211.6875 C 233.355469 211.742188 233.355469 211.742188 233.355469 211.742188 L 233.355469 680.28125 C 233.300781 686.28125 228.449219 691.136719 222.394531 691.191406 " fill-opacity="1" fill-rule="nonzero"/></g><g clip-path="url(#5d2c50eb5f)"><path fill="#232325" d="M 222.339844 98.671875 C 194.140625 98.671875 171.285156 121.527344 171.285156 149.726562 C 171.285156 177.925781 194.140625 200.78125 222.339844 200.78125 C 250.539062 200.78125 273.394531 177.925781 273.394531 149.726562 C 273.394531 121.582031 250.539062 98.726562 222.339844 98.671875 Z M 222.339844 222.707031 C 182.085938 222.707031 149.414062 190.035156 149.414062 149.726562 C 149.414062 109.472656 182.085938 76.800781 222.339844 76.800781 C 262.648438 76.800781 295.320312 109.472656 295.320312 149.726562 C 295.320312 190.035156 262.648438 222.707031 222.339844 222.707031 " fill-opacity="1" fill-rule="nonzero"/></g></svg>