<svg xmlns="http://www.w3.org/2000/svg" xmlns:xlink="http://www.w3.org/1999/xlink" width="2000" zoomAndPan="magnify" viewBox="0 0 1500 1499.999933" height="2000" preserveAspectRatio="xMidYMid meet" version="1.0"><defs><clipPath id="10b81376b2"><path d="M 8.359375 0.425781 L 1491.636719 0.425781 L 1491.636719 535.5 L 8.359375 535.5 Z M 8.359375 0.425781 " clip-rule="nonzero"/></clipPath><clipPath id="7d77cadaba"><path d="M 8.359375 1208.359375 L 1491.636719 1208.359375 L 1491.636719 1499.464844 L 8.359375 1499.464844 Z M 8.359375 1208.359375 " clip-rule="nonzero"/></clipPath><clipPath id="6f00a877dd"><path d="M 132.984375 995.421875 L 1356.171875 995.421875 L 1356.171875 1208.421875 L 132.984375 1208.421875 Z M 132.984375 995.421875 " clip-rule="nonzero"/></clipPath><clipPath id="5e9dd82b4f"><path d="M 1356.148438 1019.421875 L 1356.148438 1184.355469 C 1356.148438 1190.71875 1353.621094 1196.824219 1349.121094 1201.324219 C 1344.617188 1205.824219 1338.515625 1208.351562 1332.152344 1208.351562 L 156.980469 1208.351562 C 150.617188 1208.351562 144.511719 1205.824219 140.011719 1201.324219 C 135.511719 1196.824219 132.984375 1190.71875 132.984375 1184.355469 L 132.984375 1019.421875 C 132.984375 1013.054688 135.511719 1006.953125 140.011719 1002.453125 C 144.511719 997.953125 150.617188 995.421875 156.980469 995.421875 L 1332.152344 995.421875 C 1338.515625 995.421875 1344.617188 997.953125 1349.121094 1002.453125 C 1353.621094 1006.953125 1356.148438 1013.054688 1356.148438 1019.421875 Z M 1356.148438 1019.421875 " clip-rule="nonzero"/></clipPath><clipPath id="f19373941d"><path d="M 132.984375 771.101562 L 1356.171875 771.101562 L 1356.171875 984.101562 L 132.984375 984.101562 Z M 132.984375 771.101562 " clip-rule="nonzero"/></clipPath><clipPath id="ab08b4d7e3"><path d="M 1356.148438 795.097656 L 1356.148438 960.03125 C 1356.148438 966.398438 1353.621094 972.5 1349.121094 977 C 1344.617188 981.5 1338.515625 984.03125 1332.152344 984.03125 L 156.980469 984.03125 C 150.617188 984.03125 144.511719 981.5 140.011719 977 C 135.511719 972.5 132.984375 966.398438 132.984375 960.03125 L 132.984375 795.097656 C 132.984375 788.734375 135.511719 782.628906 140.011719 778.128906 C 144.511719 773.628906 150.617188 771.101562 156.980469 771.101562 L 1332.152344 771.101562 C 1338.515625 771.101562 1344.617188 773.628906 1349.121094 778.128906 C 1353.621094 782.628906 1356.148438 788.734375 1356.148438 795.097656 Z M 1356.148438 795.097656 " clip-rule="nonzero"/></clipPath><clipPath id="0ef106ab99"><path d="M 132.984375 546.777344 L 1356.171875 546.777344 L 1356.171875 759.777344 L 132.984375 759.777344 Z M 132.984375 546.777344 " clip-rule="nonzero"/></clipPath><clipPath id="7bd669ab16"><path d="M 1356.148438 570.773438 L 1356.148438 735.707031 C 1356.148438 742.074219 1353.621094 748.175781 1349.121094 752.679688 C 1344.617188 757.179688 1338.515625 759.707031 1332.152344 759.707031 L 156.980469 759.707031 C 150.617188 759.707031 144.511719 757.179688 140.011719 752.679688 C 135.511719 748.175781 132.984375 742.074219 132.984375 735.707031 L 132.984375 570.773438 C 132.984375 564.410156 135.511719 558.304688 140.011719 553.804688 C 144.511719 549.304688 150.617188 546.777344 156.980469 546.777344 L 1332.152344 546.777344 C 1338.515625 546.777344 1344.617188 549.304688 1349.121094 553.804688 C 1353.621094 558.304688 1356.148438 564.410156 1356.148438 570.773438 Z M 1356.148438 570.773438 " clip-rule="nonzero"/></clipPath></defs><g clip-path="url(#10b81376b2)"><path fill="#f6c091" d="M 1098.910156 211.792969 C 1125.953125 211.792969 1125.953125 169.820312 1098.910156 169.820312 C 1071.917969 169.820312 1071.863281 211.792969 1098.910156 211.792969 Z M 418.28125 205.304688 C 445.304688 205.304688 445.34375 163.3125 418.28125 163.3125 C 391.277344 163.3125 391.234375 205.304688 418.28125 205.304688 Z M 312.453125 364.875 C 339.457031 364.875 339.5 322.882812 312.453125 322.882812 C 285.425781 322.882812 285.386719 364.875 312.453125 364.875 Z M 618.5625 279.523438 C 645.554688 279.523438 645.660156 237.550781 618.5625 237.550781 C 591.570312 237.550781 591.519531 279.523438 618.5625 279.523438 Z M 690.210938 105.96875 C 717.257812 105.96875 717.257812 63.976562 690.210938 63.976562 C 663.21875 63.976562 663.167969 105.96875 690.210938 105.96875 Z M 1051.703125 373.027344 C 1078.746094 373.027344 1078.800781 331.03125 1051.703125 331.03125 C 1024.710938 331.03125 1024.65625 373.027344 1051.703125 373.027344 Z M 916.582031 151.5625 C 943.574219 151.5625 943.625 109.570312 916.582031 109.570312 C 889.535156 109.570312 889.484375 151.5625 916.582031 151.5625 Z M 750.015625 42.355469 C 413.144531 42.355469 139.09375 211.179688 139.09375 418.703125 L 139.082031 436.738281 C 139.082031 457.683594 156.117188 474.714844 177.0625 474.714844 L 1323.011719 474.714844 C 1343.921875 474.714844 1360.957031 457.683594 1360.957031 436.738281 L 1360.957031 418.703125 C 1360.957031 211.179688 1086.890625 42.355469 750.035156 42.355469 Z M 1322.988281 516.648438 L 177.039062 516.648438 C 132.996094 516.648438 97.152344 480.796875 97.152344 436.738281 L 97.152344 418.703125 C 97.152344 305.113281 166.375 199.019531 292.039062 120.007812 C 414.695312 42.890625 577.316406 0.425781 750.015625 0.425781 C 922.714844 0.425781 1085.351562 42.886719 1207.996094 120.007812 C 1333.679688 199.019531 1402.867188 305.113281 1402.867188 418.703125 L 1402.867188 436.738281 C 1402.867188 480.796875 1367.015625 516.648438 1322.988281 516.648438 Z M 1433.003906 589.019531 C 1435.78125 586.871094 1434.839844 587.707031 1431.746094 589.75 C 1427.34375 592.632812 1422.886719 595.414062 1418.277344 597.980469 C 1404.542969 605.476562 1389.554688 611.03125 1374.039062 613.546875 C 1350.976562 617.320312 1327.496094 613.863281 1306.480469 603.640625 C 1282.683594 592.109375 1264.183594 572.980469 1239.601562 562.496094 C 1188.445312 540.589844 1126.546875 551.28125 1084.878906 588.335938 C 1084.40625 588.703125 1083.726562 589.175781 1082.835938 589.75 C 1078.433594 592.632812 1073.976562 595.414062 1069.363281 597.980469 C 1055.632812 605.476562 1040.589844 611.03125 1025.128906 613.546875 C 1002.066406 617.320312 978.585938 613.863281 957.570312 603.640625 C 933.773438 592.109375 915.21875 572.980469 890.691406 562.496094 C 839.535156 540.589844 777.636719 551.28125 735.96875 588.335938 C 735.496094 588.703125 734.816406 589.175781 733.925781 589.75 C 729.519531 592.632812 725.015625 595.414062 720.402344 597.980469 C 706.667969 605.476562 691.679688 611.03125 676.21875 613.546875 C 653.15625 617.320312 629.621094 613.863281 608.605469 603.640625 C 584.808594 592.109375 566.308594 572.980469 541.777344 562.496094 C 490.59375 540.589844 428.679688 551.28125 387.058594 588.335938 C 386.5625 588.703125 385.886719 589.175781 384.988281 589.75 C 380.570312 592.632812 376.125 595.414062 371.476562 597.980469 C 357.757812 605.476562 342.730469 611.03125 327.273438 613.546875 C 304.21875 617.320312 280.695312 613.863281 259.6875 603.640625 C 235.921875 592.109375 217.390625 572.980469 192.84375 562.496094 C 141.332031 540.484375 78.929688 551.386719 37.300781 589.019531 C 17.21875 607.207031 46.988281 636.765625 66.996094 618.683594 C 79.726562 607.207031 101.121094 597.507812 119.648438 594.207031 C 173.699219 584.457031 205.042969 626.335938 250.269531 645.257812 C 305.097656 668.160156 370.003906 655.269531 415.925781 618.683594 C 428.664062 607.207031 450.058594 597.507812 468.5625 594.207031 C 522.632812 584.457031 553.992188 626.335938 599.222656 645.257812 C 654.046875 668.160156 718.933594 655.269531 764.847656 618.683594 C 777.582031 607.207031 798.96875 597.507812 817.523438 594.207031 C 871.558594 584.457031 902.902344 626.335938 948.132812 645.257812 C 1002.957031 668.160156 1067.84375 655.269531 1113.8125 618.683594 C 1126.546875 607.207031 1147.878906 597.507812 1166.433594 594.207031 C 1220.523438 584.457031 1251.867188 626.335938 1297.097656 645.257812 C 1351.867188 668.160156 1416.808594 655.269531 1462.722656 618.683594 C 1483.84375 601.859375 1453.96875 572.351562 1433.003906 589.019531 Z M 79.972656 732.996094 C 63.613281 732.996094 50.304688 746.308594 50.304688 762.660156 L 50.304688 789.96875 C 50.304688 806.320312 63.613281 819.632812 79.972656 819.632812 L 1420.058594 819.632812 C 1436.410156 819.632812 1449.722656 806.320312 1449.722656 789.96875 L 1449.722656 762.660156 C 1449.722656 746.308594 1436.410156 732.996094 1420.058594 732.996094 Z M 1420.058594 861.5625 L 79.972656 861.5625 C 40.5 861.5625 8.375 829.488281 8.375 789.96875 L 8.375 762.660156 C 8.375 723.195312 40.5 691.066406 79.972656 691.066406 L 1420.058594 691.066406 C 1459.523438 691.066406 1491.652344 723.195312 1491.652344 762.660156 L 1491.652344 789.96875 C 1491.652344 829.488281 1459.523438 861.5625 1420.058594 861.5625 Z M 177.039062 944.847656 C 156.097656 944.847656 139.0625 961.882812 139.0625 982.792969 L 139.0625 1009.054688 C 139.0625 1073.3125 191.347656 1125.617188 255.636719 1125.617188 L 1244.347656 1125.617188 C 1308.660156 1125.617188 1360.914062 1073.3125 1360.914062 1009.054688 L 1360.914062 982.792969 C 1360.914062 961.882812 1343.882812 944.847656 1322.96875 944.847656 Z M 1244.371094 1167.546875 L 255.660156 1167.546875 C 168.253906 1167.546875 97.152344 1096.425781 97.152344 1009.054688 L 97.152344 982.792969 C 97.152344 938.769531 132.996094 902.917969 177.0625 902.917969 L 1323.011719 902.917969 C 1367.035156 902.917969 1402.886719 938.765625 1402.886719 982.792969 L 1402.886719 1009.054688 C 1402.886719 1096.425781 1331.816406 1167.546875 1244.390625 1167.546875 " fill-opacity="1" fill-rule="nonzero"/></g><g clip-path="url(#7d77cadaba)"><path fill="#f6c091" d="M 1098.910156 543.710938 C 1125.953125 543.710938 1125.953125 501.738281 1098.910156 501.738281 C 1071.917969 501.738281 1071.863281 543.710938 1098.910156 543.710938 Z M 418.28125 537.222656 C 445.304688 537.222656 445.34375 495.230469 418.28125 495.230469 C 391.277344 495.230469 391.234375 537.222656 418.28125 537.222656 Z M 312.453125 696.792969 C 339.457031 696.792969 339.5 654.800781 312.453125 654.800781 C 285.425781 654.800781 285.386719 696.792969 312.453125 696.792969 Z M 618.5625 611.4375 C 645.554688 611.4375 645.660156 569.46875 618.5625 569.46875 C 591.570312 569.46875 591.519531 611.4375 618.5625 611.4375 Z M 690.210938 437.886719 C 717.257812 437.886719 717.257812 395.890625 690.210938 395.890625 C 663.21875 395.890625 663.167969 437.886719 690.210938 437.886719 Z M 1051.703125 704.945312 C 1078.746094 704.945312 1078.800781 662.949219 1051.703125 662.949219 C 1024.710938 662.949219 1024.65625 704.945312 1051.703125 704.945312 Z M 916.582031 483.480469 C 943.574219 483.480469 943.625 441.484375 916.582031 441.484375 C 889.535156 441.484375 889.484375 483.480469 916.582031 483.480469 Z M 750.015625 374.273438 C 413.144531 374.273438 139.09375 543.097656 139.09375 750.621094 L 139.082031 768.65625 C 139.082031 789.601562 156.117188 806.632812 177.0625 806.632812 L 1323.011719 806.632812 C 1343.921875 806.632812 1360.957031 789.601562 1360.957031 768.65625 L 1360.957031 750.621094 C 1360.957031 543.097656 1086.890625 374.273438 750.035156 374.273438 Z M 1322.988281 848.5625 L 177.039062 848.5625 C 132.996094 848.5625 97.152344 812.714844 97.152344 768.65625 L 97.152344 750.621094 C 97.152344 637.03125 166.375 530.9375 292.039062 451.925781 C 414.695312 374.808594 577.316406 332.34375 750.015625 332.34375 C 922.714844 332.34375 1085.351562 374.804688 1207.996094 451.925781 C 1333.679688 530.9375 1402.867188 637.03125 1402.867188 750.621094 L 1402.867188 768.65625 C 1402.867188 812.714844 1367.015625 848.5625 1322.988281 848.5625 Z M 1433.003906 920.9375 C 1435.78125 918.785156 1434.839844 919.625 1431.746094 921.667969 C 1427.34375 924.550781 1422.886719 927.332031 1418.277344 929.898438 C 1404.542969 937.394531 1389.554688 942.949219 1374.039062 945.464844 C 1350.976562 949.238281 1327.496094 945.78125 1306.480469 935.558594 C 1282.683594 924.027344 1264.183594 904.898438 1239.601562 894.414062 C 1188.445312 872.507812 1126.546875 883.199219 1084.878906 920.253906 C 1084.40625 920.621094 1083.726562 921.09375 1082.835938 921.667969 C 1078.433594 924.550781 1073.976562 927.332031 1069.363281 929.898438 C 1055.632812 937.394531 1040.589844 942.949219 1025.128906 945.464844 C 1002.066406 949.238281 978.585938 945.78125 957.570312 935.558594 C 933.773438 924.027344 915.21875 904.898438 890.691406 894.414062 C 839.535156 872.507812 777.636719 883.199219 735.96875 920.253906 C 735.496094 920.621094 734.816406 921.09375 733.925781 921.667969 C 729.519531 924.550781 725.015625 927.332031 720.402344 929.898438 C 706.667969 937.394531 691.679688 942.949219 676.21875 945.464844 C 653.15625 949.238281 629.621094 945.78125 608.605469 935.558594 C 584.808594 924.027344 566.308594 904.898438 541.777344 894.414062 C 490.59375 872.507812 428.679688 883.199219 387.058594 920.253906 C 386.5625 920.621094 385.886719 921.09375 384.988281 921.667969 C 380.570312 924.550781 376.125 927.332031 371.476562 929.898438 C 357.757812 937.394531 342.730469 942.949219 327.273438 945.464844 C 304.21875 949.238281 280.695312 945.78125 259.6875 935.558594 C 235.921875 924.027344 217.390625 904.898438 192.84375 894.414062 C 141.332031 872.402344 78.929688 883.304688 37.300781 920.9375 C 17.21875 939.121094 46.988281 968.683594 66.996094 950.601562 C 79.726562 939.121094 101.121094 929.425781 119.648438 926.125 C 173.699219 916.375 205.042969 958.253906 250.269531 977.175781 C 305.097656 1000.078125 370.003906 987.183594 415.925781 950.601562 C 428.664062 939.121094 450.058594 929.425781 468.5625 926.125 C 522.632812 916.375 553.992188 958.253906 599.222656 977.175781 C 654.046875 1000.078125 718.933594 987.183594 764.847656 950.601562 C 777.582031 939.121094 798.96875 929.425781 817.523438 926.125 C 871.558594 916.375 902.902344 958.253906 948.132812 977.175781 C 1002.957031 1000.078125 1067.84375 987.183594 1113.8125 950.601562 C 1126.546875 939.121094 1147.878906 929.425781 1166.433594 926.125 C 1220.523438 916.375 1251.867188 958.253906 1297.097656 977.175781 C 1351.867188 1000.078125 1416.808594 987.183594 1462.722656 950.601562 C 1483.84375 933.777344 1453.96875 904.269531 1433.003906 920.9375 Z M 79.972656 1064.914062 C 63.613281 1064.914062 50.304688 1078.226562 50.304688 1094.578125 L 50.304688 1121.886719 C 50.304688 1138.238281 63.613281 1151.550781 79.972656 1151.550781 L 1420.058594 1151.550781 C 1436.410156 1151.550781 1449.722656 1138.238281 1449.722656 1121.886719 L 1449.722656 1094.578125 C 1449.722656 1078.226562 1436.410156 1064.914062 1420.058594 1064.914062 Z M 1420.058594 1193.480469 L 79.972656 1193.480469 C 40.5 1193.480469 8.375 1161.40625 8.375 1121.886719 L 8.375 1094.578125 C 8.375 1055.113281 40.5 1022.984375 79.972656 1022.984375 L 1420.058594 1022.984375 C 1459.523438 1022.984375 1491.652344 1055.113281 1491.652344 1094.578125 L 1491.652344 1121.886719 C 1491.652344 1161.40625 1459.523438 1193.480469 1420.058594 1193.480469 Z M 177.039062 1276.765625 C 156.097656 1276.765625 139.0625 1293.800781 139.0625 1314.710938 L 139.0625 1340.96875 C 139.0625 1405.226562 191.347656 1457.535156 255.636719 1457.535156 L 1244.347656 1457.535156 C 1308.660156 1457.535156 1360.914062 1405.226562 1360.914062 1340.96875 L 1360.914062 1314.710938 C 1360.914062 1293.800781 1343.882812 1276.765625 1322.96875 1276.765625 Z M 1244.371094 1499.464844 L 255.660156 1499.464844 C 168.253906 1499.464844 97.152344 1428.34375 97.152344 1340.96875 L 97.152344 1314.710938 C 97.152344 1270.683594 132.996094 1234.835938 177.0625 1234.835938 L 1323.011719 1234.835938 C 1367.035156 1234.835938 1402.886719 1270.683594 1402.886719 1314.710938 L 1402.886719 1340.96875 C 1402.886719 1428.34375 1331.816406 1499.464844 1244.390625 1499.464844 " fill-opacity="1" fill-rule="nonzero"/></g><g clip-path="url(#6f00a877dd)"><g clip-path="url(#5e9dd82b4f)"><path stroke-linecap="butt" transform="matrix(0.75, 0, 0, 0.75, 132.982447, 995.422862)" fill="none" stroke-linejoin="miter" d="M 1630.888127 31.998686 L 1630.888127 251.910164 C 1630.888127 260.394539 1627.518335 268.535165 1621.518335 274.535166 C 1615.513126 280.535166 1607.377708 283.904958 1598.893333 283.904958 L 31.997364 283.904958 C 23.512989 283.904958 15.372363 280.535166 9.372362 274.535166 C 3.372362 268.535165 0.00257001 260.394539 0.00257001 251.910164 L 0.00257001 31.998686 C 0.00257001 23.509102 3.372362 15.373685 9.372362 9.373684 C 15.372363 3.368476 23.512989 -0.00131635 31.997364 -0.00131635 L 1598.893333 -0.00131635 C 1607.377708 -0.00131635 1615.513126 3.368476 1621.518335 9.373684 C 1627.518335 15.373685 1630.888127 23.509102 1630.888127 31.998686 Z M 1630.888127 31.998686 " stroke="#f6c091" stroke-width="82" stroke-opacity="1" stroke-miterlimit="4"/></g></g><g clip-path="url(#f19373941d)"><g clip-path="url(#ab08b4d7e3)"><path stroke-linecap="butt" transform="matrix(0.75, 0, 0, 0.75, 132.982447, 771.099874)" fill="none" stroke-linejoin="miter" d="M 1630.888127 31.997046 L 1630.888127 251.908524 C 1630.888127 260.398108 1627.518335 268.533525 1621.518335 274.533526 C 1615.513126 280.533526 1607.377708 283.908526 1598.893333 283.908526 L 31.997364 283.908526 C 23.512989 283.908526 15.372363 280.533526 9.372362 274.533526 C 3.372362 268.533525 0.00257001 260.398108 0.00257001 251.908524 L 0.00257001 31.997046 C 0.00257001 23.512671 3.372362 15.372045 9.372362 9.372044 C 15.372363 3.372044 23.512989 0.00225189 31.997364 0.00225189 L 1598.893333 0.00225189 C 1607.377708 0.00225189 1615.513126 3.372044 1621.518335 9.372044 C 1627.518335 15.372045 1630.888127 23.512671 1630.888127 31.997046 Z M 1630.888127 31.997046 " stroke="#f6c091" stroke-width="82" stroke-opacity="1" stroke-miterlimit="4"/></g></g><g clip-path="url(#0ef106ab99)"><g clip-path="url(#7bd669ab16)"><path stroke-linecap="butt" transform="matrix(0.75, 0, 0, 0.75, 132.982447, 546.776837)" fill="none" stroke-linejoin="miter" d="M 1630.888127 31.99547 L 1630.888127 251.906947 C 1630.888127 260.396532 1627.518335 268.531949 1621.518335 274.537158 C 1615.513126 280.537158 1607.377708 283.90695 1598.893333 283.90695 L 31.997364 283.90695 C 23.512989 283.90695 15.372363 280.537158 9.372362 274.537158 C 3.372362 268.531949 0.00257001 260.396532 0.00257001 251.906947 L 0.00257001 31.99547 C 0.00257001 23.511094 3.372362 15.370469 9.372362 9.370468 C 15.372363 3.370468 23.512989 0.000675794 31.997364 0.000675794 L 1598.893333 0.000675794 C 1607.377708 0.000675794 1615.513126 3.370468 1621.518335 9.370468 C 1627.518335 15.370469 1630.888127 23.511094 1630.888127 31.99547 Z M 1630.888127 31.99547 " stroke="#f6c091" stroke-width="82" stroke-opacity="1" stroke-miterlimit="4"/></g></g></svg>