<svg xmlns="http://www.w3.org/2000/svg" xmlns:xlink="http://www.w3.org/1999/xlink" width="2000" zoomAndPan="magnify" viewBox="0 0 1500 1499.999933" height="2000" preserveAspectRatio="xMidYMid meet" version="1.0"><defs><g/></defs><path fill="#f6c091" d="M 789.617188 381.664062 C 767.722656 359.773438 732.277344 359.773438 710.382812 381.664062 L 322.839844 769.238281 C 304.929688 787.152344 275.925781 787.121094 258.015625 769.207031 L 252.359375 763.519531 C 234.476562 745.609375 234.476562 716.574219 252.390625 698.664062 L 437.207031 513.847656 C 437.207031 513.5 437.140625 513.183594 437.140625 512.835938 L 437.140625 386.214844 C 437.140625 358.667969 459.476562 336.332031 487.027344 336.332031 C 514.574219 336.332031 536.878906 358.667969 536.878906 386.183594 L 536.878906 414.175781 L 717.585938 233.464844 C 726.527344 224.527344 738.277344 220.039062 750 220.039062 C 761.753906 220.039062 773.472656 224.496094 782.414062 233.464844 L 1247.640625 698.695312 C 1265.554688 716.605469 1265.554688 745.640625 1247.640625 763.519531 L 1241.953125 769.207031 C 1224.042969 787.121094 1195.007812 787.121094 1177.09375 769.207031 Z M 789.617188 381.664062 " fill-opacity="1" fill-rule="nonzero"/><path fill="#f6c091" d="M 750.03125 1500.0625 C 336.457031 1500.0625 0 1163.605469 0 750.03125 C 0 336.457031 336.457031 0 750.03125 0 C 1163.605469 0 1500.0625 336.457031 1500.0625 750.03125 C 1500.0625 1163.605469 1163.605469 1500.0625 750.03125 1500.0625 Z M 750.03125 93.765625 C 388.175781 93.765625 93.765625 388.175781 93.765625 750.03125 C 93.765625 1111.890625 388.175781 1406.296875 750.03125 1406.296875 C 1111.890625 1406.296875 1406.296875 1111.890625 1406.296875 750.03125 C 1406.296875 388.175781 1111.890625 93.765625 750.03125 93.765625 Z M 750.03125 93.765625 " fill-opacity="1" fill-rule="nonzero"/><path fill="#f6c091" d="M 632.730469 1006.433594 L 632.730469 1238.132812 C 632.730469 1270.324219 601.925781 1293.449219 570.964844 1284.667969 C 506.960938 1266.5 446.933594 1238.828125 392.46875 1203.316406 C 378.886719 1194.441406 370.828125 1179.179688 370.828125 1162.972656 L 370.828125 862.625 C 370.828125 832.898438 382.644531 804.402344 403.652344 783.394531 L 710.414062 476.632812 C 732.308594 454.738281 767.753906 454.738281 789.648438 476.632812 L 1096.410156 783.394531 C 1117.417969 804.402344 1129.234375 832.898438 1129.234375 862.625 L 1129.234375 1163.003906 C 1129.234375 1179.210938 1121.175781 1194.503906 1107.59375 1203.347656 C 1053.128906 1238.859375 993.070312 1266.53125 929.097656 1284.699219 C 898.136719 1293.480469 867.332031 1270.324219 867.332031 1238.164062 L 867.332031 1006.464844 C 867.332031 941.671875 814.828125 889.164062 750.03125 889.164062 C 685.234375 889.164062 632.730469 941.671875 632.730469 1006.433594 Z M 632.730469 1006.433594 " fill-opacity="1" fill-rule="nonzero"/><g fill="#f6c091" fill-opacity="1"><g transform="translate(489.550767, 854.951282)"><g><path d="M 93.03125 -74.8125 L 93.03125 -119.9375 L 116.65625 -119.9375 L 116.65625 0 L 93.03125 0 L 93.03125 -54.640625 L 39.296875 -54.640625 L 39.296875 0 L 15.59375 0 L 15.59375 -119.9375 L 39.296875 -119.9375 L 39.296875 -74.8125 Z M 93.03125 -74.8125 "/></g></g><g transform="translate(621.867163, 854.951282)"><g><path d="M 65.375 1.71875 C 54.382812 1.71875 44.691406 -0.519531 36.296875 -5 C 27.898438 -9.488281 21.320312 -16.335938 16.5625 -25.546875 C 11.8125 -34.765625 9.4375 -46.238281 9.4375 -59.96875 C 9.4375 -73.695312 11.8125 -85.164062 16.5625 -94.375 C 21.320312 -103.59375 27.898438 -110.441406 36.296875 -114.921875 C 44.691406 -119.410156 54.382812 -121.65625 65.375 -121.65625 C 76.375 -121.65625 86.054688 -119.425781 94.421875 -114.96875 C 102.785156 -110.507812 109.332031 -103.660156 114.0625 -94.421875 C 118.789062 -85.179688 121.15625 -73.695312 121.15625 -59.96875 C 121.15625 -46.238281 118.789062 -34.753906 114.0625 -25.515625 C 109.332031 -16.273438 102.785156 -9.425781 94.421875 -4.96875 C 86.054688 -0.507812 76.375 1.71875 65.375 1.71875 Z M 65.375 -18.875 C 75.550781 -18.875 83.316406 -22.140625 88.671875 -28.671875 C 94.035156 -35.203125 96.71875 -45.632812 96.71875 -59.96875 C 96.71875 -74.289062 94.035156 -84.734375 88.671875 -91.296875 C 83.316406 -97.859375 75.550781 -101.140625 65.375 -101.140625 C 55.15625 -101.140625 47.347656 -97.859375 41.953125 -91.296875 C 36.566406 -84.734375 33.875 -74.289062 33.875 -59.96875 C 33.875 -45.632812 36.566406 -35.203125 41.953125 -28.671875 C 47.347656 -22.140625 55.15625 -18.875 65.375 -18.875 Z M 65.375 -18.875 "/></g></g><g transform="translate(752.542932, 854.951282)"><g><path d="M 37.328125 0 L 15.59375 0 L 15.59375 -119.9375 L 46.59375 -119.9375 L 76.953125 -31.75 L 78.671875 -31.75 L 108.859375 -119.9375 L 139.125 -119.9375 L 139.125 0 L 116.65625 0 L 116.65625 -79.25 L 114.59375 -79.578125 L 86.875 0 L 67.109375 0 L 39.375 -79.578125 L 37.328125 -79.25 Z M 37.328125 0 "/></g></g><g transform="translate(907.335888, 854.951282)"><g><path d="M 39.296875 -52.671875 L 39.296875 -19.859375 L 96.546875 -19.859375 L 96.546875 0 L 15.59375 0 L 15.59375 -119.9375 L 95.234375 -119.9375 L 95.234375 -100.078125 L 39.296875 -100.078125 L 39.296875 -72.03125 L 88.1875 -72.03125 L 88.1875 -52.671875 Z M 39.296875 -52.671875 "/></g></g></g></svg>