<svg xmlns="http://www.w3.org/2000/svg" xmlns:xlink="http://www.w3.org/1999/xlink" width="2000" zoomAndPan="magnify" viewBox="0 0 1500 1499.999933" height="2000" preserveAspectRatio="xMidYMid meet" version="1.0"><defs><g/><clipPath id="d896e1335e"><path d="M 586 1092 L 950 1092 L 950 1369.160156 L 586 1369.160156 Z M 586 1092 " clip-rule="nonzero"/></clipPath><clipPath id="54f7d9ec6e"><rect x="0" width="164" y="0" height="25"/></clipPath></defs><path fill="#f6c091" d="M 1310.640625 566.253906 L 1292.917969 560.84375 L 1293.363281 539.207031 C 1293.425781 410.039062 1175.074219 308.511719 1041.511719 337.324219 C 1024.65625 340.96875 1008.429688 347.394531 993.097656 355.285156 L 970.710938 366.761719 L 964.253906 353.550781 C 919.15625 261.324219 836.011719 190.761719 735.503906 169.660156 C 548.835938 130.480469 382.425781 261.921875 350.808594 438.28125 L 349.253906 447.007812 L 330.363281 448.5625 C 141.992188 464.519531 0.03125 645.273438 43.007812 840.101562 C 76.0625 989.953125 215.363281 1092.523438 368.828125 1092.523438 L 451.164062 1092.523438 C 471.789062 1092.523438 492.558594 1092.914062 511.894531 1092.253906 C 568.289062 1090.34375 603.289062 1029.972656 578.0625 979.523438 C 506.394531 979.523438 454.992188 905.882812 484.398438 840.523438 C 490.40625 827.132812 498.925781 814.609375 509.921875 803.613281 L 679.738281 633.765625 C 728.332031 585.203125 807.054688 585.203125 855.617188 633.765625 L 1025.464844 803.613281 C 1036.429688 814.582031 1044.917969 827.101562 1050.957031 840.460938 C 1080.425781 905.824219 1028.929688 979.523438 957.230469 979.523438 C 931.53125 1030.957031 968.351562 1091.238281 1025.820312 1092.492188 C 1040.707031 1092.824219 1055.886719 1092.523438 1070.203125 1092.523438 L 1220.890625 1092.523438 C 1369.039062 1092.523438 1500.121094 971.484375 1500.03125 823.308594 C 1499.910156 704.628906 1423.789062 601.371094 1310.640625 566.253906 Z M 1310.640625 566.253906 " fill-opacity="1" fill-rule="nonzero"/><g clip-path="url(#d896e1335e)"><path fill="#f6c091" d="M 915.78125 1159.230469 L 620.382812 1159.230469 C 602.003906 1159.230469 587.117188 1144.347656 587.117188 1125.96875 L 587.117188 1125.90625 C 587.117188 1107.527344 602.003906 1092.644531 620.382812 1092.644531 L 915.78125 1092.644531 C 934.160156 1092.644531 949.042969 1107.527344 949.042969 1125.90625 L 949.042969 1125.96875 C 949.042969 1144.347656 934.128906 1159.230469 915.78125 1159.230469 Z M 948.746094 1231.078125 C 948.746094 1212.699219 933.859375 1197.8125 915.480469 1197.8125 L 620.082031 1197.8125 C 601.703125 1197.8125 586.820312 1212.699219 586.820312 1231.078125 C 586.820312 1249.457031 601.703125 1264.339844 620.082031 1264.339844 L 915.480469 1264.339844 C 933.859375 1264.339844 948.746094 1249.457031 948.746094 1231.078125 Z M 948.746094 1336.1875 C 948.746094 1317.808594 933.859375 1302.925781 915.480469 1302.925781 L 620.082031 1302.925781 C 601.703125 1302.925781 586.820312 1317.808594 586.820312 1336.1875 C 586.820312 1354.566406 601.703125 1369.453125 620.082031 1369.453125 L 915.480469 1369.453125 C 933.859375 1369.453125 948.746094 1354.566406 948.746094 1336.1875 Z M 948.746094 1336.1875 " fill-opacity="1" fill-rule="nonzero"/></g><g transform="matrix(1, 0, 0, 1, 651, 533)"><g clip-path="url(#54f7d9ec6e)"><g fill="#f6c091" fill-opacity="1"><g transform="translate(2.072591, 19.173773)"><g><path d="M 12.546875 -13.9375 L 7.703125 -5.296875 L 7.703125 0 L 5.0625 0 L 5.0625 -5.296875 L 0.203125 -13.9375 L 3.25 -13.9375 L 6.375 -8.140625 L 9.515625 -13.9375 Z M 12.546875 -13.9375 "/></g></g></g><g fill="#f6c091" fill-opacity="1"><g transform="translate(17.207075, 19.173773)"><g><path d="M 7.359375 -14.046875 C 8.359375 -14.046875 9.269531 -13.867188 10.09375 -13.515625 C 10.925781 -13.160156 11.640625 -12.65625 12.234375 -12 C 12.835938 -11.351562 13.300781 -10.597656 13.625 -9.734375 C 13.945312 -8.867188 14.109375 -7.941406 14.109375 -6.953125 C 14.109375 -5.953125 13.945312 -5.019531 13.625 -4.15625 C 13.300781 -3.289062 12.835938 -2.535156 12.234375 -1.890625 C 11.640625 -1.242188 10.925781 -0.738281 10.09375 -0.375 C 9.269531 -0.0195312 8.359375 0.15625 7.359375 0.15625 C 6.367188 0.15625 5.457031 -0.0195312 4.625 -0.375 C 3.800781 -0.738281 3.085938 -1.242188 2.484375 -1.890625 C 1.878906 -2.535156 1.410156 -3.289062 1.078125 -4.15625 C 0.753906 -5.019531 0.59375 -5.953125 0.59375 -6.953125 C 0.59375 -7.941406 0.753906 -8.867188 1.078125 -9.734375 C 1.410156 -10.597656 1.878906 -11.351562 2.484375 -12 C 3.085938 -12.65625 3.800781 -13.160156 4.625 -13.515625 C 5.457031 -13.867188 6.367188 -14.046875 7.359375 -14.046875 Z M 7.359375 -2.515625 C 8.210938 -2.515625 8.9375 -2.707031 9.53125 -3.09375 C 10.132812 -3.488281 10.597656 -4.019531 10.921875 -4.6875 C 11.242188 -5.351562 11.40625 -6.109375 11.40625 -6.953125 C 11.40625 -7.796875 11.242188 -8.550781 10.921875 -9.21875 C 10.597656 -9.894531 10.132812 -10.425781 9.53125 -10.8125 C 8.9375 -11.207031 8.210938 -11.40625 7.359375 -11.40625 C 6.515625 -11.40625 5.789062 -11.207031 5.1875 -10.8125 C 4.582031 -10.425781 4.113281 -9.894531 3.78125 -9.21875 C 3.457031 -8.550781 3.296875 -7.796875 3.296875 -6.953125 C 3.296875 -6.109375 3.457031 -5.351562 3.78125 -4.6875 C 4.113281 -4.019531 4.582031 -3.488281 5.1875 -3.09375 C 5.789062 -2.707031 6.515625 -2.515625 7.359375 -2.515625 Z M 7.359375 -2.515625 "/></g></g></g><g fill="#f6c091" fill-opacity="1"><g transform="translate(34.313022, 19.173773)"><g><path d="M 9.015625 -13.9375 L 11.671875 -13.9375 L 11.671875 -5.46875 C 11.671875 -4.320312 11.445312 -3.328125 11 -2.484375 C 10.5625 -1.640625 9.941406 -0.988281 9.140625 -0.53125 C 8.335938 -0.0703125 7.398438 0.15625 6.328125 0.15625 C 5.253906 0.15625 4.316406 -0.0703125 3.515625 -0.53125 C 2.710938 -0.988281 2.09375 -1.640625 1.65625 -2.484375 C 1.21875 -3.328125 1 -4.320312 1 -5.46875 L 1 -13.9375 L 3.640625 -13.9375 L 3.640625 -5.53125 C 3.640625 -4.601562 3.878906 -3.867188 4.359375 -3.328125 C 4.835938 -2.785156 5.492188 -2.515625 6.328125 -2.515625 C 7.148438 -2.515625 7.800781 -2.785156 8.28125 -3.328125 C 8.769531 -3.867188 9.015625 -4.601562 9.015625 -5.53125 Z M 9.015625 -13.9375 "/></g></g></g><g fill="#f6c091" fill-opacity="1"><g transform="translate(49.367844, 19.173773)"><g><path d="M 8.4375 0 L 5.671875 -4.78125 L 3.75 -4.78125 L 3.75 0 L 1.09375 0 L 1.09375 -13.9375 L 6.25 -13.9375 C 7.28125 -13.9375 8.15625 -13.726562 8.875 -13.3125 C 9.601562 -12.90625 10.15625 -12.351562 10.53125 -11.65625 C 10.90625 -10.96875 11.09375 -10.203125 11.09375 -9.359375 C 11.09375 -8.429688 10.863281 -7.59375 10.40625 -6.84375 C 9.957031 -6.09375 9.300781 -5.535156 8.4375 -5.171875 L 11.421875 0 Z M 3.75 -11.390625 L 3.75 -7.3125 L 6.1875 -7.3125 C 6.851562 -7.3125 7.378906 -7.5 7.765625 -7.875 C 8.148438 -8.257812 8.34375 -8.753906 8.34375 -9.359375 C 8.34375 -9.953125 8.148438 -10.4375 7.765625 -10.8125 C 7.378906 -11.195312 6.851562 -11.390625 6.1875 -11.390625 Z M 3.75 -11.390625 "/></g></g></g><g fill="#f6c091" fill-opacity="1"><g transform="translate(63.486729, 19.173773)"><g/></g></g><g fill="#f6c091" fill-opacity="1"><g transform="translate(71.053959, 19.173773)"><g><path d="M 6.296875 -8.375 C 7.203125 -8.101562 8.015625 -7.796875 8.734375 -7.453125 C 9.460938 -7.117188 10.03125 -6.679688 10.4375 -6.140625 C 10.851562 -5.597656 11.0625 -4.898438 11.0625 -4.046875 C 11.0625 -3.273438 10.878906 -2.5625 10.515625 -1.90625 C 10.148438 -1.257812 9.59375 -0.738281 8.84375 -0.34375 C 8.09375 0.0390625 7.140625 0.234375 5.984375 0.234375 C 5.085938 0.234375 4.238281 0.0859375 3.4375 -0.203125 C 2.632812 -0.503906 1.957031 -0.914062 1.40625 -1.4375 C 0.863281 -1.96875 0.523438 -2.5625 0.390625 -3.21875 L 2.828125 -4.15625 C 2.960938 -3.625 3.300781 -3.207031 3.84375 -2.90625 C 4.382812 -2.601562 5.019531 -2.453125 5.75 -2.453125 C 6.5625 -2.453125 7.175781 -2.59375 7.59375 -2.875 C 8.019531 -3.15625 8.234375 -3.507812 8.234375 -3.9375 C 8.234375 -4.21875 8.144531 -4.453125 7.96875 -4.640625 C 7.800781 -4.835938 7.503906 -5.023438 7.078125 -5.203125 C 6.648438 -5.378906 6.054688 -5.582031 5.296875 -5.8125 C 3.691406 -6.289062 2.535156 -6.859375 1.828125 -7.515625 C 1.128906 -8.171875 0.78125 -9.007812 0.78125 -10.03125 C 0.78125 -10.5 0.867188 -10.96875 1.046875 -11.4375 C 1.222656 -11.90625 1.503906 -12.332031 1.890625 -12.71875 C 2.273438 -13.113281 2.78125 -13.429688 3.40625 -13.671875 C 4.039062 -13.921875 4.800781 -14.046875 5.6875 -14.046875 C 6.40625 -14.046875 7.097656 -13.921875 7.765625 -13.671875 C 8.429688 -13.429688 9 -13.078125 9.46875 -12.609375 C 9.945312 -12.148438 10.253906 -11.585938 10.390625 -10.921875 L 8.046875 -10.046875 C 7.992188 -10.335938 7.84375 -10.582031 7.59375 -10.78125 C 7.34375 -10.988281 7.050781 -11.144531 6.71875 -11.25 C 6.394531 -11.363281 6.0625 -11.421875 5.71875 -11.421875 C 5.15625 -11.441406 4.65625 -11.347656 4.21875 -11.140625 C 3.789062 -10.929688 3.578125 -10.59375 3.578125 -10.125 C 3.578125 -9.914062 3.648438 -9.71875 3.796875 -9.53125 C 3.941406 -9.34375 4.210938 -9.160156 4.609375 -8.984375 C 5.003906 -8.804688 5.566406 -8.601562 6.296875 -8.375 Z M 6.296875 -8.375 "/></g></g></g><g fill="#f6c091" fill-opacity="1"><g transform="translate(85.013521, 19.173773)"><g><path d="M 3.75 -2.53125 L 9.453125 -2.53125 L 9.453125 0 L 1.09375 0 L 1.09375 -13.9375 L 3.75 -13.9375 Z M 3.75 -2.53125 "/></g></g></g><g fill="#f6c091" fill-opacity="1"><g transform="translate(97.459637, 19.173773)"><g><path d="M 7.359375 -14.046875 C 8.359375 -14.046875 9.269531 -13.867188 10.09375 -13.515625 C 10.925781 -13.160156 11.640625 -12.65625 12.234375 -12 C 12.835938 -11.351562 13.300781 -10.597656 13.625 -9.734375 C 13.945312 -8.867188 14.109375 -7.941406 14.109375 -6.953125 C 14.109375 -5.953125 13.945312 -5.019531 13.625 -4.15625 C 13.300781 -3.289062 12.835938 -2.535156 12.234375 -1.890625 C 11.640625 -1.242188 10.925781 -0.738281 10.09375 -0.375 C 9.269531 -0.0195312 8.359375 0.15625 7.359375 0.15625 C 6.367188 0.15625 5.457031 -0.0195312 4.625 -0.375 C 3.800781 -0.738281 3.085938 -1.242188 2.484375 -1.890625 C 1.878906 -2.535156 1.410156 -3.289062 1.078125 -4.15625 C 0.753906 -5.019531 0.59375 -5.953125 0.59375 -6.953125 C 0.59375 -7.941406 0.753906 -8.867188 1.078125 -9.734375 C 1.410156 -10.597656 1.878906 -11.351562 2.484375 -12 C 3.085938 -12.65625 3.800781 -13.160156 4.625 -13.515625 C 5.457031 -13.867188 6.367188 -14.046875 7.359375 -14.046875 Z M 7.359375 -2.515625 C 8.210938 -2.515625 8.9375 -2.707031 9.53125 -3.09375 C 10.132812 -3.488281 10.597656 -4.019531 10.921875 -4.6875 C 11.242188 -5.351562 11.40625 -6.109375 11.40625 -6.953125 C 11.40625 -7.796875 11.242188 -8.550781 10.921875 -9.21875 C 10.597656 -9.894531 10.132812 -10.425781 9.53125 -10.8125 C 8.9375 -11.207031 8.210938 -11.40625 7.359375 -11.40625 C 6.515625 -11.40625 5.789062 -11.207031 5.1875 -10.8125 C 4.582031 -10.425781 4.113281 -9.894531 3.78125 -9.21875 C 3.457031 -8.550781 3.296875 -7.796875 3.296875 -6.953125 C 3.296875 -6.109375 3.457031 -5.351562 3.78125 -4.6875 C 4.113281 -4.019531 4.582031 -3.488281 5.1875 -3.09375 C 5.789062 -2.707031 6.515625 -2.515625 7.359375 -2.515625 Z M 7.359375 -2.515625 "/></g></g></g><g fill="#f6c091" fill-opacity="1"><g transform="translate(114.565584, 19.173773)"><g><path d="M 7.5 -7.53125 L 13.234375 -7.53125 L 13.234375 -3.078125 C 12.660156 -2.085938 11.875 -1.300781 10.875 -0.71875 C 9.882812 -0.132812 8.75 0.15625 7.46875 0.15625 C 6.46875 0.15625 5.550781 -0.0195312 4.71875 -0.375 C 3.894531 -0.738281 3.179688 -1.242188 2.578125 -1.890625 C 1.972656 -2.535156 1.507812 -3.289062 1.1875 -4.15625 C 0.863281 -5.019531 0.703125 -5.953125 0.703125 -6.953125 C 0.703125 -7.941406 0.863281 -8.867188 1.1875 -9.734375 C 1.507812 -10.597656 1.972656 -11.351562 2.578125 -12 C 3.179688 -12.65625 3.894531 -13.160156 4.71875 -13.515625 C 5.550781 -13.867188 6.46875 -14.046875 7.46875 -14.046875 C 8.75 -14.046875 9.882812 -13.75 10.875 -13.15625 C 11.875 -12.570312 12.660156 -11.785156 13.234375 -10.796875 L 10.828125 -9.59375 C 10.492188 -10.15625 10.039062 -10.597656 9.46875 -10.921875 C 8.90625 -11.242188 8.238281 -11.40625 7.46875 -11.40625 C 6.613281 -11.40625 5.882812 -11.207031 5.28125 -10.8125 C 4.675781 -10.425781 4.210938 -9.894531 3.890625 -9.21875 C 3.566406 -8.550781 3.40625 -7.796875 3.40625 -6.953125 C 3.40625 -6.109375 3.566406 -5.351562 3.890625 -4.6875 C 4.210938 -4.019531 4.675781 -3.488281 5.28125 -3.09375 C 5.882812 -2.707031 6.613281 -2.515625 7.46875 -2.515625 C 8.144531 -2.515625 8.742188 -2.628906 9.265625 -2.859375 C 9.785156 -3.085938 10.21875 -3.414062 10.5625 -3.84375 L 10.5625 -5.390625 L 7.5 -5.390625 Z M 7.5 -7.53125 "/></g></g></g><g fill="#f6c091" fill-opacity="1"><g transform="translate(131.193611, 19.173773)"><g><path d="M 10.09375 0 L 9 -3.140625 L 4.28125 -3.140625 L 3.203125 0 L 0.203125 0 L 5.296875 -13.9375 L 8 -13.9375 L 13.09375 0 Z M 5.171875 -5.671875 L 8.125 -5.671875 L 6.65625 -9.953125 Z M 5.171875 -5.671875 "/></g></g></g><g fill="#f6c091" fill-opacity="1"><g transform="translate(146.885676, 19.173773)"><g><path d="M 9.296875 -13.9375 L 11.9375 -13.9375 L 11.9375 0 L 9.34375 0 L 3.75 -9.03125 L 3.75 0 L 1.09375 0 L 1.09375 -13.9375 L 3.6875 -13.9375 L 9.296875 -4.890625 Z M 9.296875 -13.9375 "/></g></g></g></g></g></svg>